#N canvas 610 160 894 599 10;
#X obj 155 77 sampler;
#X obj 146 261 rfft~;
#X obj 147 320 *~;
#X obj 174 320 *~;
#X obj 147 358 +~;
#X obj 146 406 tabsend~ magnitude;
#X obj 13 143 table magnitude;
#X obj 14 86 block~ 2048;
#X obj 145 228 ave~;
#X obj 348 363 sendOSC;
#X msg 365 309 connect localhost 8000;
#X floatatom 348 396 5 0 0 0 - - -;
#X floatatom 387 396 5 0 0 0 - - -;
#X obj 348 215 tabdump magnitude;
#X obj 348 241 list prepend /this/is/the/path;
#X obj 348 281 list trim;
#X obj 348 262 list prepend send;
#X obj 348 187 metro 46.4399;
#X obj 348 164 tgl 15 0 empty empty empty 17 7 0 10 -262144 -1 -1 0
1;
#X msg 248 43 /home/chrono/music/samples/kalimbaphrases/loop1.wav;
#X obj 647 346 print;
#X connect 0 0 8 0;
#X connect 0 1 8 1;
#X connect 1 0 2 0;
#X connect 1 0 2 1;
#X connect 1 1 3 0;
#X connect 1 1 3 1;
#X connect 2 0 4 0;
#X connect 3 0 4 1;
#X connect 4 0 5 0;
#X connect 8 0 1 0;
#X connect 9 0 11 0;
#X connect 9 1 12 0;
#X connect 10 0 9 0;
#X connect 13 0 14 0;
#X connect 14 0 16 0;
#X connect 15 0 9 0;
#X connect 15 0 20 0;
#X connect 16 0 15 0;
#X connect 17 0 13 0;
#X connect 18 0 17 0;
#X connect 19 0 0 1;
