#N canvas 625 109 331 438 10;
#X declare -lib mrpeach;
#X obj 149 -9 loadbang;
#X obj 149 12 delay 100;
#X msg 149 36 \; pd dsp 1;
#X obj 11 601 dac~;
#X obj 12 -17 import mrpeach;
#X obj 12 29 unpackOSC;
#X obj 28 53 print OSC;
#X obj 12 10 udpreceive 8000;
#X obj 12 87 routeOSC /photodiode;
#X obj 12 131 vline~;
#X obj 11 197 dac~;
#X obj 12 157 osc~;
#X msg 151 87 100;
#X msg 12 111 \$1 30;
#X connect 0 0 1 0;
#X connect 1 0 2 0;
#X connect 5 0 6 0;
#X connect 5 0 8 0;
#X connect 7 0 5 0;
#X connect 8 0 13 0;
#X connect 9 0 11 0;
#X connect 11 0 10 0;
#X connect 11 0 10 1;
#X connect 12 0 13 0;
#X connect 13 0 9 0;
