#N canvas 222 188 450 527 10;
#X obj 19 182 mtof;
#X obj 30 290 vline~;
#X obj 19 358 vcf~;
#X obj 20 407 *~;
#X obj 321 259 vline~;
#X obj 19 203 square~;
#X obj 21 451 outlet~;
#X obj 19 125 inlet;
#X text 16 89 give it a midi note;
#X msg 30 269 \$1 200;
#X obj 153 121 inlet;
#X text 152 90 filter center frequency;
#X obj 336 122 inlet;
#X text 333 92 sustain;
#X obj 321 212 f;
#X obj 19 158 t f b;
#X msg 321 238 1 \, 0 \$1;
#X msg 40 337 9;
#X obj 40 318 loadbang;
#X text 18 10 sqbp~ = square wave into a band pass filter;
#X connect 0 0 5 0;
#X connect 1 0 2 1;
#X connect 2 0 3 0;
#X connect 3 0 6 0;
#X connect 4 0 3 1;
#X connect 5 0 2 0;
#X connect 7 0 15 0;
#X connect 9 0 1 0;
#X connect 10 0 9 0;
#X connect 12 0 14 1;
#X connect 14 0 16 0;
#X connect 15 0 0 0;
#X connect 15 1 14 0;
#X connect 16 0 4 0;
#X connect 17 0 2 2;
#X connect 18 0 17 0;
