#N canvas 142 276 450 420 10;
#X obj 19 320 *~;
#X obj 19 53 unpack f f;
#X obj 19 74 mtof;
#X obj 19 31 inlet;
#X text 16 7 pitch/volume pair e.g. |60 0.8(;
#X obj 19 97 square~;
#X obj 30 160 vline~;
#X obj 19 228 vcf~;
#X msg 30 139 \$1 200;
#X msg 40 207 9;
#X obj 18 348 outlet~;
#X obj 251 243 vline~;
#X msg 310 187 \$1 30;
#X msg 251 189 0 \$1 30;
#X obj 251 142 t b f;
#X obj 226 30 inlet;
#X obj 356 30 inlet;
#X text 354 8 sustain;
#X text 222 7 filter center freq;
#X obj 251 167 f;
#X obj 221 77 loadbang;
#X msg 106 118 500;
#X msg 356 131 500;
#X connect 0 0 10 0;
#X connect 1 0 2 0;
#X connect 1 1 14 0;
#X connect 2 0 5 0;
#X connect 3 0 1 0;
#X connect 5 0 7 0;
#X connect 6 0 7 1;
#X connect 7 0 0 0;
#X connect 8 0 6 0;
#X connect 9 0 7 2;
#X connect 11 0 0 1;
#X connect 12 0 11 0;
#X connect 13 0 11 0;
#X connect 14 0 19 0;
#X connect 14 1 12 0;
#X connect 15 0 8 0;
#X connect 16 0 19 1;
#X connect 19 0 13 0;
#X connect 20 0 21 0;
#X connect 20 0 9 0;
#X connect 20 0 22 0;
#X connect 21 0 8 0;
#X connect 22 0 19 1;
