#N canvas 561 127 701 579 10;
#X obj 12 19 dumpOSC 8000;
#X obj 351 7 loadbang;
#X obj 351 28 delay 100;
#X msg 619 46 \; pd dsp 1;
#X obj 24 40 print OSC;
#X text 97 38 use with -stderr to debug;
#X text 102 355 delay on/off;
#X obj 81 334 OSCroute /onoff /time /feedback;
#X obj 321 373 tgl 15 0 empty empty empty 17 7 0 10 -262144 -1 -1 0
1;
#X obj 81 358 tgl 15 0 empty empty empty 17 7 0 10 -262144 -1 -1 0
1;
#X obj 320 308 OSCroute /on /off;
#X msg 321 344 0;
#X msg 369 345 1;
#X obj 11 531 dac~;
#X text 397 344 kill;
#N canvas 727 270 561 355 killdelay 0;
#X obj 33 33 inlet~;
#X obj 30 328 outlet~;
#X obj 89 32 inlet;
#X obj 353 35 inlet;
#X obj 93 186 * 1000;
#X obj 93 145 knob 32 32 0 1 0 0 empty empty empty 0 -8 0 8 -262144
-1 -1 0 1;
#X obj 161 146 knob 32 32 0 1 0 0 empty empty empty 0 -8 0 8 -262144
-1 -1 0 1;
#X obj 32 83 spigot~;
#X obj 31 284 spigot~;
#X text 87 7 delay onoff;
#X text 350 9 kill;
#X obj 167 33 inlet;
#X obj 250 33 inlet;
#X text 166 7 delay time;
#X text 247 7 delay feedback;
#X obj 70 216 cpdelay~;
#X text 35 8 signal;
#X connect 0 0 7 0;
#X connect 2 0 7 1;
#X connect 3 0 8 1;
#X connect 4 0 15 1;
#X connect 5 0 4 0;
#X connect 6 0 15 2;
#X connect 7 0 8 0;
#X connect 7 1 15 0;
#X connect 8 0 1 0;
#X connect 11 0 5 0;
#X connect 12 0 6 0;
#X connect 15 0 8 0;
#X restore 13 398 pd killdelay;
#X obj 12 485 loopstation;
#X obj 33 425 cup;
#X obj 33 445 mod 3;
#X obj 33 464 select 0 1 2;
#X text 78 444 this cycles one bang between 3;
#X obj 351 77 sampler;
#X msg 351 57 1;
#X obj 352 109 dac~;
#X msg 444 57 /home/pi/starsplash.wav;
#X obj 12 101 OSCroute /note /filter /sustain;
#X obj 73 122 expr 100+$f1*9000;
#X obj 134 144 expr 50+$f1*2000;
#N canvas 86 343 450 300 drums 0;
#X obj 31 115 tr909;
#X obj 94 115 dundunba;
#X obj 30 226 outlet~;
#X obj 222 115 tabla;
#X obj 31 37 inlet;
#X obj 31 86 OSCroute /tr909 /dundunba /rx21Latin /tabla;
#X obj 158 115 rx21Latin;
#X connect 0 0 2 0;
#X connect 1 0 2 0;
#X connect 3 0 2 0;
#X connect 4 0 5 0;
#X connect 5 0 0 0;
#X connect 5 1 1 0;
#X connect 5 2 6 0;
#X connect 5 3 3 0;
#X connect 6 0 2 0;
#X restore 207 224 pd drums;
#X obj 12 69 OSCroute /synth /delay /kill /loop /drums;
#X obj 446 166 s sampledir;
#X msg 446 143 list /home/chrono/cyclophone_samples;
#X obj 25 277 vline~;
#X msg 25 256 \$1 200;
#X obj 13 318 moog~;
#X obj 41 299 sig~ 3;
#X msg 47 231 1200;
#X obj 12 177 squarepoly;
#X obj 12 350 *~ 3;
#X connect 0 0 4 0;
#X connect 0 0 29 0;
#X connect 1 0 2 0;
#X connect 2 0 3 0;
#X connect 2 0 22 0;
#X connect 2 0 24 0;
#X connect 2 0 31 0;
#X connect 2 0 36 0;
#X connect 7 0 9 0;
#X connect 7 1 15 2;
#X connect 7 2 15 3;
#X connect 8 0 15 4;
#X connect 9 0 15 1;
#X connect 10 0 12 0;
#X connect 10 1 11 0;
#X connect 11 0 8 0;
#X connect 12 0 8 0;
#X connect 15 0 16 0;
#X connect 16 0 13 0;
#X connect 16 0 13 1;
#X connect 17 0 18 0;
#X connect 18 0 19 0;
#X connect 19 0 16 1;
#X connect 19 1 16 2;
#X connect 19 2 16 3;
#X connect 21 0 23 0;
#X connect 21 1 23 1;
#X connect 22 0 21 0;
#X connect 24 0 21 1;
#X connect 25 0 37 0;
#X connect 25 1 26 0;
#X connect 25 2 27 0;
#X connect 26 0 33 0;
#X connect 27 0 37 1;
#X connect 28 0 15 0;
#X connect 29 0 25 0;
#X connect 29 1 7 0;
#X connect 29 2 10 0;
#X connect 29 3 17 0;
#X connect 29 4 28 0;
#X connect 31 0 30 0;
#X connect 32 0 34 1;
#X connect 33 0 32 0;
#X connect 34 0 38 0;
#X connect 35 0 34 2;
#X connect 36 0 33 0;
#X connect 37 0 34 0;
#X connect 38 0 15 0;
