#N canvas 205 195 368 420 10;
#X obj 24 58 pack f f f;
#X obj 24 35 poly 6 1;
#X obj 24 13 inlet;
#X obj 25 338 outlet~;
#X obj 197 79 inlet;
#X obj 297 78 inlet;
#X text 194 58 center freq;
#X text 294 58 sustain;
#X obj 24 81 route 1 2 3 4 5 6 7 8;
#X obj 24 142 moogvoice;
#X obj 39 162 moogvoice;
#X obj 54 182 moogvoice;
#X obj 70 202 moogvoice;
#X obj 85 222 moogvoice;
#X obj 100 242 moogvoice;
#X obj 116 262 moogvoice;
#X obj 131 282 moogvoice;
#X connect 0 0 8 0;
#X connect 1 0 0 0;
#X connect 1 1 0 1;
#X connect 1 2 0 2;
#X connect 2 0 1 0;
#X connect 4 0 9 1;
#X connect 4 0 10 1;
#X connect 4 0 11 1;
#X connect 4 0 12 1;
#X connect 4 0 13 1;
#X connect 4 0 14 1;
#X connect 4 0 15 1;
#X connect 4 0 16 1;
#X connect 5 0 9 2;
#X connect 5 0 10 2;
#X connect 5 0 11 2;
#X connect 5 0 12 2;
#X connect 5 0 13 2;
#X connect 5 0 14 2;
#X connect 5 0 15 2;
#X connect 5 0 16 2;
#X connect 8 0 9 0;
#X connect 8 1 10 0;
#X connect 8 2 11 0;
#X connect 8 3 12 0;
#X connect 8 4 13 0;
#X connect 8 5 14 0;
#X connect 8 6 15 0;
#X connect 8 7 16 0;
#X connect 9 0 3 0;
#X connect 10 0 3 0;
#X connect 11 0 3 0;
#X connect 12 0 3 0;
#X connect 13 0 3 0;
#X connect 14 0 3 0;
#X connect 15 0 3 0;
#X connect 16 0 3 0;
