#N canvas 170 209 768 486 10;
#X obj 44 163 sampler;
#X obj 94 203 sampler;
#X obj 144 243 sampler;
#X obj 194 283 sampler;
#X obj 244 323 sampler;
#X obj 294 363 sampler;
#X obj 44 101 OSCroute /0 /1 /2 /3 /4 /5;
#X obj 44 58 inlet;
#X obj 44 410 outlet~;
#X obj 617 56 r sampledir;
#X msg 137 141 \$1/drums/rx21Latin/agogo.wav;
#X msg 187 181 \$1/drums/rx21Latin/bongo.wav;
#X msg 237 221 \$1/drums/rx21Latin/conga.wav;
#X msg 287 261 \$1/drums/rx21Latin/cowbell.wav;
#X msg 337 301 \$1/drums/rx21Latin/cuica.wav;
#X msg 387 341 \$1/drums/rx21Latin/timbale.wav;
#X connect 0 0 8 0;
#X connect 0 1 8 0;
#X connect 1 0 8 0;
#X connect 1 1 8 0;
#X connect 2 0 8 0;
#X connect 2 1 8 0;
#X connect 3 0 8 0;
#X connect 3 1 8 0;
#X connect 4 0 8 0;
#X connect 4 1 8 0;
#X connect 5 0 8 0;
#X connect 5 1 8 0;
#X connect 6 0 0 0;
#X connect 6 1 1 0;
#X connect 6 2 2 0;
#X connect 6 3 3 0;
#X connect 6 4 4 0;
#X connect 6 5 5 0;
#X connect 7 0 6 0;
#X connect 9 0 10 0;
#X connect 9 0 12 0;
#X connect 9 0 13 0;
#X connect 9 0 14 0;
#X connect 9 0 15 0;
#X connect 9 0 11 0;
#X connect 10 0 0 1;
#X connect 11 0 1 1;
#X connect 12 0 2 1;
#X connect 13 0 3 1;
#X connect 14 0 4 1;
#X connect 15 0 5 1;
