#N canvas 610 207 753 449 10;
#X obj 56 241 *~;
#X obj 425 184 soundfiler;
#X obj 71 90 inlet;
#X obj 57 275 outlet~;
#X obj 425 134 pack s f;
#X obj 490 112 f \$0;
#X obj 490 92 loadbang;
#X text 499 134 i guess messages can't take \$0 variables?;
#X obj 305 234 outlet;
#X text 308 264 bang;
#X obj 425 223 table \$0-sampleL;
#X obj 425 243 table \$0-sampleR;
#X msg 425 159 read -resize \$1 \$2-sampleL \$2-sampleR;
#X obj 195 243 *~;
#X obj 196 275 outlet~;
#X text 59 309 L~;
#X text 204 307 R~;
#X obj 55 189 tabplay~ \$0-sampleL;
#X obj 194 189 tabplay~ \$0-sampleR;
#X obj 425 83 openpanel;
#X obj 283 3 bng 15 250 50 0 empty empty empty 17 7 0 10 -232576 -1
-1;
#X obj 264 3 bng 15 250 50 0 empty empty empty 17 7 0 10 -4034 -1 -1
;
#X obj 576 39 inlet;
#X text 29 -114 Left inlet takes velocity (or bang green). Right inlet
takes filename (or bang purple). Left two outlets are stereo audio.
Right outlet bangs when sample ends. for a sampler that ignores note-off
commands \, try sampler_pad.pd;
#X obj 141 147 bng 15 250 50 0 empty empty empty 17 7 0 10 -262144
-1 -1;
#X msg 264 54 1;
#X connect 0 0 3 0;
#X connect 2 0 24 0;
#X connect 2 0 0 1;
#X connect 2 0 13 1;
#X connect 4 0 12 0;
#X connect 5 0 4 1;
#X connect 6 0 5 0;
#X connect 12 0 1 0;
#X connect 13 0 14 0;
#X connect 17 0 0 0;
#X connect 18 0 13 0;
#X connect 18 1 8 0;
#X connect 19 0 4 0;
#X connect 20 0 19 0;
#X connect 21 0 25 0;
#X connect 22 0 4 0;
#X connect 24 0 17 0;
#X connect 24 0 18 0;
#X connect 25 0 24 0;
#X connect 25 0 0 1;
#X connect 25 0 13 1;
#X coords 0 -1 2 1 100 25 1 200 0;
