#N canvas 784 292 547 436 10;
#X obj 19 270 *~;
#X obj 19 63 unpack f f;
#X obj 19 84 mtof;
#X obj 19 41 inlet;
#X obj 19 107 square~;
#X obj 18 298 outlet~;
#X obj 76 233 vline~;
#X msg 135 197 \$1 30;
#X msg 76 199 0 \$1 30;
#X obj 76 152 t b f;
#X obj 91 40 inlet;
#X text 129 38 sustain;
#X obj 76 177 f;
#X obj 181 116 loadbang;
#X msg 181 141 500;
#X text 6 7 pitch/volume pair e.g. |60 0.8(;
#X connect 0 0 5 0;
#X connect 1 0 2 0;
#X connect 1 1 9 0;
#X connect 2 0 4 0;
#X connect 3 0 1 0;
#X connect 4 0 0 0;
#X connect 6 0 0 1;
#X connect 7 0 6 0;
#X connect 8 0 6 0;
#X connect 9 0 12 0;
#X connect 9 1 7 0;
#X connect 10 0 12 1;
#X connect 12 0 8 0;
#X connect 13 0 14 0;
#X connect 14 0 12 1;
