#N canvas 70 286 368 420 10;
#X obj 24 78 pack f f f;
#X obj 24 55 poly 6 1;
#X obj 24 33 inlet;
#X obj 25 338 outlet~;
#X obj 267 48 inlet;
#X text 264 28 sustain;
#X obj 24 101 route 1 2 3 4 5 6;
#X obj 24 143 squarevoice;
#X obj 40 167 squarevoice;
#X obj 57 190 squarevoice;
#X obj 73 213 squarevoice;
#X obj 90 234 squarevoice;
#X obj 106 256 squarevoice;
#X text 23 9 note/vel pair;
#X connect 0 0 6 0;
#X connect 1 0 0 0;
#X connect 1 1 0 1;
#X connect 1 2 0 2;
#X connect 2 0 1 0;
#X connect 4 0 7 1;
#X connect 4 0 8 1;
#X connect 4 0 9 1;
#X connect 4 0 10 1;
#X connect 4 0 11 1;
#X connect 4 0 12 1;
#X connect 6 0 7 0;
#X connect 6 1 8 0;
#X connect 6 2 9 0;
#X connect 6 3 10 0;
#X connect 6 4 11 0;
#X connect 6 5 12 0;
#X connect 7 0 3 0;
#X connect 8 0 3 0;
#X connect 9 0 3 0;
#X connect 10 0 3 0;
#X connect 11 0 3 0;
#X connect 12 0 3 0;
