#N canvas 737 222 626 300 10;
#X obj 123 178 *~ 0.5;
#X obj 27 90 inlet~;
#X obj 27 268 outlet~;
#X obj 172 90 inlet;
#X obj 370 121 inlet;
#X text 25 62 audio in;
#X text 311 93 feedback level range: 0.0-1.0 default: 0.5;
#X obj 67 143 delwrite~ \$0-delname 1000;
#X text 156 17 (cpdelay = cyclophone delay);
#X obj 70 218 vline~;
#X msg 70 196 \$1 200;
#X obj 216 90 loadbang;
#X msg 216 109 500;
#X obj 69 238 vd~ \$0-delname;
#X text 159 62 delay time range: 0-1000 (ms) default: 500 ms;
#X connect 0 0 7 0;
#X connect 1 0 2 0;
#X connect 1 0 7 0;
#X connect 3 0 10 0;
#X connect 4 0 0 1;
#X connect 9 0 13 0;
#X connect 10 0 9 0;
#X connect 11 0 12 0;
#X connect 12 0 10 0;
#X connect 13 0 0 0;
#X connect 13 0 2 0;
