#N canvas 452 142 768 486 10;
#X obj 44 163 sampler;
#X obj 94 203 sampler;
#X obj 144 243 sampler;
#X obj 194 283 sampler;
#X obj 244 323 sampler;
#X obj 294 363 sampler;
#X obj 44 101 OSCroute /0 /1 /2 /3 /4 /5;
#X obj 44 58 inlet;
#X obj 84 410 outlet~;
#X msg 137 141 \$1/drums/tr909/kick.wav;
#X msg 187 181 \$1/drums/tr909/snare.wav;
#X msg 237 221 \$1/drums/tr909/clap.wav;
#X msg 287 261 \$1/drums/tr909/openhat.wav;
#X msg 337 301 \$1/drums/tr909/closedhat.wav;
#X msg 387 341 \$1/drums/tr909/ride.wav;
#X obj 527 71 r sampledir;
#X connect 0 0 8 0;
#X connect 0 1 8 0;
#X connect 1 0 8 0;
#X connect 1 1 8 0;
#X connect 2 0 8 0;
#X connect 2 1 8 0;
#X connect 3 0 8 0;
#X connect 3 1 8 0;
#X connect 4 0 8 0;
#X connect 4 1 8 0;
#X connect 5 0 8 0;
#X connect 5 1 8 0;
#X connect 6 0 0 0;
#X connect 6 1 1 0;
#X connect 6 2 2 0;
#X connect 6 3 3 0;
#X connect 6 4 4 0;
#X connect 6 5 5 0;
#X connect 7 0 6 0;
#X connect 9 0 0 1;
#X connect 10 0 1 1;
#X connect 11 0 2 1;
#X connect 12 0 3 1;
#X connect 13 0 4 1;
#X connect 14 0 5 1;
#X connect 15 0 9 0;
#X connect 15 0 11 0;
#X connect 15 0 12 0;
#X connect 15 0 13 0;
#X connect 15 0 14 0;
#X connect 15 0 10 0;
