#N canvas 844 187 368 475 10;
#X obj 24 58 pack f f f;
#X obj 24 81 route 1 2 3 4 5 6;
#X obj 24 35 poly 6 1;
#X obj 24 152 fmvoice~;
#X obj 24 13 inlet;
#X obj 24 358 outlet~;
#X obj 44 182 fmvoice~;
#X obj 64 212 fmvoice~;
#X obj 84 242 fmvoice~;
#X obj 104 272 fmvoice~;
#X obj 124 302 fmvoice~;
#X obj 177 77 inlet;
#X obj 277 96 inlet;
#X text 178 49 harmonic;
#X text 279 74 index;
#X connect 0 0 1 0;
#X connect 1 0 3 0;
#X connect 1 1 6 0;
#X connect 1 2 7 0;
#X connect 1 3 8 0;
#X connect 1 4 9 0;
#X connect 1 5 10 0;
#X connect 2 0 0 0;
#X connect 2 1 0 1;
#X connect 2 2 0 2;
#X connect 3 0 5 0;
#X connect 4 0 2 0;
#X connect 6 0 5 0;
#X connect 7 0 5 0;
#X connect 8 0 5 0;
#X connect 9 0 5 0;
#X connect 10 0 5 0;
#X connect 11 0 3 1;
#X connect 11 0 6 1;
#X connect 11 0 7 1;
#X connect 11 0 8 1;
#X connect 11 0 9 1;
#X connect 11 0 10 1;
#X connect 12 0 3 2;
#X connect 12 0 6 2;
#X connect 12 0 7 2;
#X connect 12 0 8 2;
#X connect 12 0 9 2;
#X connect 12 0 10 2;
