#N canvas 979 219 286 363 10;
#X obj 28 242 osc~;
#X obj 27 204 +~;
#X text 22 21 frequency;
#X text 110 21 harmonic;
#X obj 43 113 *~;
#X obj 43 142 osc~;
#X obj 43 175 *~;
#X text 201 21 mod index;
#X obj 29 280 outlet~;
#X obj 119 47 inlet~;
#X obj 27 47 inlet~;
#X obj 207 46 inlet~;
#X connect 0 0 8 0;
#X connect 1 0 0 0;
#X connect 4 0 5 0;
#X connect 5 0 6 0;
#X connect 6 0 1 1;
#X connect 9 0 4 1;
#X connect 10 0 1 0;
#X connect 10 0 4 0;
#X connect 11 0 6 1;
