#N canvas 61 129 553 406 10;
#X obj 49 183 fmsynth~;
#X obj 50 288 *~;
#X obj 106 256 vline~;
#X msg 214 105 5;
#X obj 49 83 unpack f f;
#X obj 49 122 mtof;
#X obj 49 51 inlet;
#X obj 288 53 loadbang;
#X obj 49 357 outlet~;
#X obj 140 50 inlet;
#X obj 200 50 inlet;
#X text 139 27 harmonic;
#X text 200 26 index;
#X text 23 13 pitch/volume pair e.g. |60 0.8(;
#X msg 244 105 900;
#X obj 345 140 inlet;
#X obj 458 141 inlet;
#X text 344 122 attack;
#X text 456 124 decay;
#X obj 106 203 pack f f f;
#X msg 106 233 \$1 \$2 \, 0 \$3 \$2;
#X msg 289 103 30;
#X msg 327 103 1000;
#X text 296 33 default values;
#X connect 0 0 1 0;
#X connect 1 0 8 0;
#X connect 2 0 1 1;
#X connect 3 0 0 1;
#X connect 4 0 5 0;
#X connect 4 1 19 0;
#X connect 5 0 0 0;
#X connect 6 0 4 0;
#X connect 7 0 3 0;
#X connect 7 0 14 0;
#X connect 7 0 21 0;
#X connect 7 0 22 0;
#X connect 9 0 0 1;
#X connect 10 0 0 2;
#X connect 14 0 0 2;
#X connect 15 0 19 1;
#X connect 16 0 19 2;
#X connect 19 0 20 0;
#X connect 20 0 2 0;
#X connect 21 0 19 1;
#X connect 22 0 19 2;
