#N canvas 656 318 471 379 10;
#X obj -46 201 tabwrite~ temp;
#X msg 120 112 stop;
#X obj -43 330 table temp 2.646e+06;
#X text 86 329 60 sec;
#X obj 168 269 tabplay~ temp;
#X obj 168 113 timer;
#X floatatom 168 130 5 0 0 0 - - -;
#X obj 168 245 pack f f;
#X obj 168 154 * 44.1;
#X obj 198 185 print timething;
#X obj 299 254 spigot;
#X obj -45 38 inlet~;
#X text -46 13 Signal;
#X text 55 14 Bang Start;
#X obj 64 39 inlet;
#X obj 195 38 inlet;
#X text 186 14 Bang Loop;
#X obj 332 37 inlet;
#X msg 64 109 start 0;
#X obj 167 331 outlet~;
#X text 316 12 Bang Stop;
#X obj 332 229 tgl 15 0 empty empty empty 17 7 0 10 -262144 -1 -1 0
1;
#X msg 285 113 stop;
#X msg 168 224 0;
#X obj 168 206 t b f;
#X connect 1 0 0 0;
#X connect 4 0 19 0;
#X connect 4 1 10 0;
#X connect 5 0 6 0;
#X connect 6 0 8 0;
#X connect 7 0 4 0;
#X connect 8 0 9 0;
#X connect 8 0 24 0;
#X connect 10 0 7 0;
#X connect 11 0 0 0;
#X connect 11 0 19 0;
#X connect 14 0 18 0;
#X connect 14 0 5 0;
#X connect 15 0 1 0;
#X connect 15 0 5 1;
#X connect 15 0 21 0;
#X connect 17 0 21 0;
#X connect 17 0 22 0;
#X connect 18 0 0 0;
#X connect 21 0 10 1;
#X connect 22 0 4 0;
#X connect 23 0 7 0;
#X connect 24 0 23 0;
#X connect 24 1 7 1;
