#N canvas 207 59 1136 672 10;
#X declare -lib mrpeach;
#X obj 671 10 loadbang;
#X obj 671 31 delay 100;
#X msg 939 49 \; pd dsp 1;
#X text 83 373 delay on/off;
#X obj 181 473 tgl 15 0 empty empty empty 17 7 0 10 -262144 -1 -1 0
1;
#X obj 57 376 tgl 15 0 empty empty empty 17 7 0 10 -262144 -1 -1 0
1;
#X obj 180 408 OSCroute /on /off;
#X msg 181 444 0;
#X msg 229 445 1;
#X obj 11 631 dac~;
#X text 257 444 kill;
#X obj 12 304 fmpoly6;
#N canvas 601 328 425 355 killdelay 0;
#X obj 33 33 inlet~;
#X obj 30 328 outlet~;
#X obj 89 32 inlet;
#X obj 353 35 inlet;
#X obj 93 186 * 1000;
#X obj 93 145 knob 32 32 0 1 0 0 empty empty empty 0 -8 0 8 -262144
-1 -1 0 1;
#X obj 161 146 knob 32 32 0 1 0 0 empty empty empty 0 -8 0 8 -262144
-1 -1 0 1;
#X obj 32 83 spigot~;
#X obj 31 284 spigot~;
#X text 87 7 delay onoff;
#X text 350 9 kill;
#X obj 167 33 inlet;
#X obj 250 33 inlet;
#X text 166 7 delay time;
#X text 247 7 delay feedback;
#X obj 70 216 cpdelay~;
#X text 35 8 signal;
#X connect 0 0 7 0;
#X connect 2 0 7 1;
#X connect 3 0 8 1;
#X connect 4 0 15 1;
#X connect 5 0 4 0;
#X connect 6 0 15 2;
#X connect 7 0 8 0;
#X connect 7 1 15 0;
#X connect 8 0 1 0;
#X connect 11 0 5 0;
#X connect 12 0 6 0;
#X connect 15 0 8 0;
#X restore 13 498 pd killdelay;
#X obj 31 219 * 1000;
#X obj 12 585 loopstation;
#X obj 33 525 cup;
#X obj 33 545 mod 3;
#X obj 33 564 select 0 1 2;
#X text 78 544 this cycles one bang between 3;
#X obj 671 80 sampler;
#X msg 671 60 1;
#X obj 672 112 dac~;
#X msg 764 60 /home/ccrma/starsplash.wav;
#N canvas 86 342 450 300 drums 0;
#X obj 31 115 tr909;
#X obj 94 115 dundunba;
#X obj 30 226 outlet~;
#X obj 222 115 tabla;
#X obj 31 37 inlet;
#X obj 31 86 OSCroute /tr909 /dundunba /rx21Latin /tabla;
#X obj 158 115 rx21Latin;
#X connect 0 0 2 0;
#X connect 1 0 2 0;
#X connect 3 0 2 0;
#X connect 4 0 5 0;
#X connect 5 0 0 0;
#X connect 5 1 1 0;
#X connect 5 2 6 0;
#X connect 5 3 3 0;
#X connect 6 0 2 0;
#X restore 192 272 pd drums;
#X obj 746 159 s sampledir;
#X obj 12 -17 import mrpeach;
#X obj 12 10 udpreceive localhost 8000;
#X obj 12 29 unpackOSC;
#X obj 12 133 routeOSC /fm /delay /kill /loop /drums;
#X obj 12 159 routeOSC /note /harmonic;
#X obj 303 134 routeOSC /delay-feedback /fm-index /attack /decay;
#X obj 57 352 OSCroute /onoff /time;
#X obj 41 244 * 2000;
#X obj 51 266 * 2000;
#X obj 21 194 * 12;
#X msg 746 136 list /home/ccrma/cyclophone_samples;
#X obj 12 78 routeOSC /arduino /webserver;
#X obj 28 53 print OSC;
#X connect 0 0 1 0;
#X connect 0 0 35 0;
#X connect 1 0 2 0;
#X connect 1 0 20 0;
#X connect 1 0 22 0;
#X connect 4 0 12 4;
#X connect 5 0 12 1;
#X connect 6 0 8 0;
#X connect 6 1 7 0;
#X connect 7 0 4 0;
#X connect 8 0 4 0;
#X connect 11 0 12 0;
#X connect 12 0 14 0;
#X connect 13 0 11 2;
#X connect 14 0 9 0;
#X connect 14 0 9 1;
#X connect 15 0 16 0;
#X connect 16 0 17 0;
#X connect 17 0 14 1;
#X connect 17 1 14 2;
#X connect 17 2 14 3;
#X connect 19 0 21 0;
#X connect 19 1 21 1;
#X connect 20 0 19 0;
#X connect 22 0 19 1;
#X connect 23 0 12 0;
#X connect 26 0 27 0;
#X connect 27 0 36 0;
#X connect 27 0 37 0;
#X connect 28 0 29 0;
#X connect 28 1 31 0;
#X connect 28 2 6 0;
#X connect 28 3 15 0;
#X connect 28 4 23 0;
#X connect 29 0 11 0;
#X connect 29 1 34 0;
#X connect 30 0 12 3;
#X connect 30 1 13 0;
#X connect 30 2 32 0;
#X connect 30 3 33 0;
#X connect 31 0 5 0;
#X connect 31 1 12 2;
#X connect 32 0 11 3;
#X connect 33 0 11 4;
#X connect 34 0 11 1;
#X connect 35 0 24 0;
#X connect 36 0 28 0;
#X connect 36 1 30 0;
