#N canvas 3 58 768 486 10;
#X obj 44 163 sampler;
#X obj 94 203 sampler;
#X obj 144 243 sampler;
#X obj 194 283 sampler;
#X obj 244 323 sampler;
#X obj 294 363 sampler;
#X obj 44 58 inlet;
#X obj 44 410 outlet~;
#X obj 527 71 r sampledir;
#X msg 137 141 \$1/drums/tabla/tabla1.aif;
#X msg 187 181 \$1/drums/tabla/tabla2.aif;
#X msg 240 219 \$1/drums/tabla/tabla3.aif;
#X msg 287 261 \$1/drums/tabla/tabla4.aif;
#X msg 337 301 \$1/drums/tabla/tabla5.aif;
#X msg 387 341 \$1/drums/tabla/tabla6.aif;
#X obj 335 405 sampler;
#X msg 428 383 \$1/drums/tabla/tabla7.aif;
#X obj 45 101 OSCroute /0 /1 /2 /3 /4 /5 /6;
#X connect 0 0 7 0;
#X connect 0 1 7 0;
#X connect 1 0 7 0;
#X connect 1 1 7 0;
#X connect 2 0 7 0;
#X connect 2 1 7 0;
#X connect 3 0 7 0;
#X connect 3 1 7 0;
#X connect 4 0 7 0;
#X connect 4 1 7 0;
#X connect 5 0 7 0;
#X connect 5 1 7 0;
#X connect 6 0 17 0;
#X connect 8 0 9 0;
#X connect 8 0 11 0;
#X connect 8 0 12 0;
#X connect 8 0 13 0;
#X connect 8 0 14 0;
#X connect 8 0 10 0;
#X connect 8 0 16 0;
#X connect 9 0 0 1;
#X connect 10 0 1 1;
#X connect 11 0 2 1;
#X connect 12 0 3 1;
#X connect 13 0 4 1;
#X connect 14 0 5 1;
#X connect 15 0 7 0;
#X connect 15 1 7 0;
#X connect 16 0 15 1;
#X connect 17 0 0 0;
#X connect 17 1 1 0;
#X connect 17 2 2 0;
#X connect 17 3 3 0;
#X connect 17 4 4 0;
#X connect 17 5 5 0;
#X connect 17 6 15 0;
