#N canvas 3 54 1351 686 10;
#X msg 44 379 \$1 2000;
#X obj 44 47 inlet;
#X obj 44 401 line;
#X msg 102 379 \$1 2000;
#X obj 102 401 line;
#X msg 162 379 \$1 2000;
#X obj 162 401 line;
#X msg 222 379 \$1 2000;
#X obj 222 401 line;
#X msg 282 379 \$1 2000;
#X obj 282 401 line;
#X msg 342 379 \$1 2000;
#X obj 342 401 line;
#X obj 44 306 unpack f f f f f f f f;
#X msg 402 379 \$1 2000;
#X obj 402 401 line;
#X msg 462 379 \$1 2000;
#X obj 462 401 line;
#X obj 44 67 select 0 1 2 3 4 5 6 7;
#X obj 44 340 / 2;
#X obj 74 340 / 2;
#X obj 104 340 / 2;
#X obj 134 340 / 2;
#X obj 164 340 / 2;
#X obj 194 340 / 2;
#X obj 224 340 / 2;
#X obj 254 340 / 2;
#X obj 396 67 inlet;
#X obj 456 67 inlet;
#X obj 516 67 inlet;
#X text 431 41 3 filter sweeps;
#X obj 636 177 inlet;
#X obj 696 177 inlet;
#X obj 756 177 inlet;
#X text 694 151 3 pans;
#X msg 396 149 \$1 2000;
#X obj 396 171 vline~;
#X msg 456 165 \$1 2000;
#X obj 456 187 vline~;
#X msg 516 179 \$1 2000;
#X obj 516 201 vline~;
#X msg 636 239 \$1 2000;
#X obj 636 261 line;
#X msg 696 239 \$1 2000;
#X obj 696 261 line;
#X msg 756 239 \$1 2000;
#X obj 756 261 line;
#X msg 64 145 0.2 0.1 0.2 0.1 0 0.1 0.2 0.1;
#X msg 84 164 0.1 0.17 0.1 0.03 0.2 0.03 0.1 0.17;
#X msg 105 183 0.2 0.25 0.2 0.15 0.1 0.05 0.01 0.01;
#X msg 139 224 0.2 0.1 0.2 0.1 0 0.1 0.2 0.1;
#X msg 120 204 0.3 0.17 0.2 0.03 0.2 0.03 0.1 0.17;
#X msg 152 243 0.3 0.03 0.1 0.17 0.2 0.17 0.1 0.03;
#X msg 166 263 0.2 0 0.2 0 0 0.2 0.3 0.2;
#X floatatom 396 127 5 0 0 0 - - -;
#X floatatom 456 144 5 0 0 0 - - -;
#X floatatom 516 161 5 0 0 0 - - -;
#X obj 516 142 expr 800+300*$f1;
#X obj 456 122 expr 700+200*$f1;
#X obj 396 102 expr 500+100*$f1;
#X obj 636 211 * 45;
#X obj 696 211 * 45;
#X obj 756 211 * 45;
#X text 175 105 choral spaces:;
#X text 44 26 choral index;
#X obj 702 381 routeOSC /0 /1 /2 /3 /4 /5 /6 /7;
#X obj 932 380 routeOSC /0 /1 /2 /3 /4 /5;
#X obj 897 465 vline~;
#X msg 937 534 \$1 2000;
#X obj 937 556 vline~;
#X msg 963 607 \$1 2000;
#X obj 963 629 vline~;
#X msg 1008 447 \$1 2000;
#X msg 1034 513 \$1 2000;
#X msg 1059 577 \$1 2000;
#X obj 1008 469 line;
#X obj 1034 535 line;
#X obj 1059 599 line;
#X obj 868 295 inlet;
#X text 867 274 osc messages;
#X obj 868 319 routeOSC /voice /param;
#X text 1104 495 panning;
#X obj 702 425 \$1 2000;
#X obj 725 485 \$1 2000;
#X obj 749 545 \$1 2000;
#X obj 772 605 \$1 2000;
#X obj 796 425 \$1 2000;
#X obj 819 485 \$1 2000;
#X obj 843 545 \$1 2000;
#X obj 866 605 \$1 2000;
#X obj 702 444 line;
#X obj 725 504 line;
#X obj 749 564 line;
#X obj 772 624 line;
#X obj 796 444 line;
#X obj 819 504 line;
#X obj 843 564 line;
#X obj 866 624 line;
#X obj 44 428 s v1;
#X obj 102 431 s v2;
#X obj 162 433 s v3;
#X obj 222 431 s v4;
#X obj 282 438 s v5;
#X obj 342 435 s v6;
#X obj 402 439 s v7;
#X obj 462 431 s v8;
#X obj 682 478 s v1;
#X obj 706 550 s v2;
#X obj 716 608 s v3;
#X obj 753 661 s v4;
#X obj 785 498 s v5;
#X obj 807 551 s v6;
#X obj 833 604 s v7;
#X obj 869 662 s v8;
#X obj 1008 594 s p1;
#X obj 1034 625 s p2;
#X obj 1059 655 s p3;
#X obj 636 306 s p1;
#X obj 696 310 s p2;
#X obj 756 309 s p3;
#X text 772 697 need to find another way to combine the two audio rate
sources of filter data!;
#X obj 39 719 *~ 0;
#X obj 40 753 dac~;
#X obj 40 515 unpack f f f f f f f f;
#X obj 40 551 mtof;
#X obj 110 575 osc~;
#X obj 109 639 *~ 0;
#X obj 108 754 dac~;
#X obj 110 551 mtof;
#X obj 170 575 osc~;
#X obj 169 639 *~ 0;
#X obj 168 753 dac~;
#X obj 170 551 mtof;
#X obj 230 575 osc~;
#X obj 229 649 *~ 0;
#X obj 230 753 dac~;
#X obj 230 551 mtof;
#X obj 289 719 *~ 0;
#X obj 290 753 dac~;
#X obj 290 551 mtof;
#X obj 360 575 osc~;
#X obj 359 649 *~ 0;
#X obj 360 551 mtof;
#X obj 420 575 osc~;
#X obj 419 649 *~ 0;
#X obj 420 551 mtof;
#X obj 479 719 *~ 0;
#X obj 480 753 dac~;
#X obj 480 551 mtof;
#X obj 40 465 loadbang;
#X msg 40 491 60 62 62.05 65 67 69 69.02 72;
#X obj 40 578 phasor~;
#X obj 40 597 triangle~;
#X obj 290 579 phasor~;
#X obj 290 597 triangle~;
#X obj 290 646 vcf~ 5;
#X obj 480 579 phasor~;
#X obj 480 597 triangle~;
#X obj 480 646 vcf~ 5;
#X obj 108 724 pan~;
#X obj 168 723 pan~;
#X obj 230 716 pan~;
#X obj 189 702 * -1;
#X floatatom 129 686 5 0 0 0 - - -;
#X obj 358 774 dac~;
#X obj 418 773 dac~;
#X obj 358 754 pan~;
#X obj 418 753 pan~;
#X floatatom 379 699 5 0 0 0 - - -;
#X obj 379 723 * -1;
#X floatatom 251 696 5 0 0 0 - - -;
#X obj 40 667 *~ 4;
#X obj 290 667 *~ 4;
#X obj 480 667 *~ 4;
#X text 104 462 8 voices no thirds 2 pairs of beat frequencies;
#X obj 60 694 r v1;
#X obj 130 613 r v2;
#X obj 190 616 r v3;
#X obj 250 623 r v4;
#X obj 310 695 r v5;
#X obj 380 625 r v6;
#X obj 440 624 r v7;
#X obj 500 696 r v8;
#X obj 305 623 r~ f2;
#X obj 129 663 r p1;
#X obj 251 673 r p2;
#X obj 379 678 r p3;
#X text 267 702 comment;
#X msg 44 126 0.3 0.03 0.1 0.17 0.2 0.17 0.1 0.03;
#X obj 495 625 r~ f3;
#X obj 1008 426 * 45;
#X obj 1034 492 * 45;
#X obj 1059 556 * 45;
#X obj 887 498 s~ f1;
#X obj 977 658 s~ f3;
#X obj 927 588 s~ f2;
#X obj 56 621 r~ f1;
#X obj 590 695 snapshot~;
#X obj 593 656 metro 50;
#X floatatom 605 730 5 0 0 0 - - -;
#X obj 595 627 tgl 15 0 empty empty empty 17 7 0 10 -262144 -1 -1 0
1;
#X obj 40 646 vcf~ 10;
#X msg 897 444 \$1 1000;
#X obj 897 420 expr 400+1000*$f1;
#X obj 926 510 expr 400+1000*$f1;
#X obj 961 580 expr 400+1000*$f1;
#X connect 0 0 2 0;
#X connect 1 0 18 0;
#X connect 2 0 98 0;
#X connect 3 0 4 0;
#X connect 4 0 99 0;
#X connect 5 0 6 0;
#X connect 6 0 100 0;
#X connect 7 0 8 0;
#X connect 8 0 101 0;
#X connect 9 0 10 0;
#X connect 10 0 102 0;
#X connect 11 0 12 0;
#X connect 12 0 103 0;
#X connect 13 0 19 0;
#X connect 13 1 20 0;
#X connect 13 2 21 0;
#X connect 13 3 22 0;
#X connect 13 4 23 0;
#X connect 13 5 24 0;
#X connect 13 6 25 0;
#X connect 13 7 26 0;
#X connect 14 0 15 0;
#X connect 15 0 104 0;
#X connect 16 0 17 0;
#X connect 17 0 105 0;
#X connect 18 0 188 0;
#X connect 18 1 47 0;
#X connect 18 2 48 0;
#X connect 18 3 49 0;
#X connect 18 4 51 0;
#X connect 18 5 50 0;
#X connect 18 6 52 0;
#X connect 18 7 53 0;
#X connect 19 0 0 0;
#X connect 20 0 3 0;
#X connect 21 0 5 0;
#X connect 22 0 7 0;
#X connect 23 0 9 0;
#X connect 24 0 11 0;
#X connect 25 0 14 0;
#X connect 26 0 16 0;
#X connect 27 0 59 0;
#X connect 28 0 58 0;
#X connect 29 0 57 0;
#X connect 31 0 60 0;
#X connect 32 0 61 0;
#X connect 33 0 62 0;
#X connect 35 0 36 0;
#X connect 37 0 38 0;
#X connect 39 0 40 0;
#X connect 41 0 42 0;
#X connect 42 0 117 0;
#X connect 43 0 44 0;
#X connect 44 0 118 0;
#X connect 45 0 46 0;
#X connect 46 0 119 0;
#X connect 47 0 13 0;
#X connect 48 0 13 0;
#X connect 49 0 13 0;
#X connect 50 0 13 0;
#X connect 51 0 13 0;
#X connect 52 0 13 0;
#X connect 53 0 13 0;
#X connect 54 0 35 0;
#X connect 55 0 37 0;
#X connect 56 0 39 0;
#X connect 57 0 56 0;
#X connect 58 0 55 0;
#X connect 59 0 54 0;
#X connect 60 0 41 0;
#X connect 61 0 43 0;
#X connect 62 0 45 0;
#X connect 65 0 82 0;
#X connect 65 1 83 0;
#X connect 65 2 84 0;
#X connect 65 3 85 0;
#X connect 65 4 86 0;
#X connect 65 5 87 0;
#X connect 65 6 88 0;
#X connect 65 7 89 0;
#X connect 66 0 203 0;
#X connect 66 1 204 0;
#X connect 66 2 205 0;
#X connect 66 3 190 0;
#X connect 66 4 191 0;
#X connect 66 5 192 0;
#X connect 67 0 193 0;
#X connect 68 0 69 0;
#X connect 69 0 195 0;
#X connect 70 0 71 0;
#X connect 71 0 194 0;
#X connect 72 0 75 0;
#X connect 73 0 76 0;
#X connect 74 0 77 0;
#X connect 75 0 114 0;
#X connect 76 0 115 0;
#X connect 77 0 116 0;
#X connect 78 0 80 0;
#X connect 80 0 65 0;
#X connect 80 1 66 0;
#X connect 82 0 90 0;
#X connect 83 0 91 0;
#X connect 84 0 92 0;
#X connect 85 0 93 0;
#X connect 86 0 94 0;
#X connect 87 0 95 0;
#X connect 88 0 96 0;
#X connect 89 0 97 0;
#X connect 90 0 106 0;
#X connect 91 0 107 0;
#X connect 92 0 108 0;
#X connect 93 0 109 0;
#X connect 94 0 110 0;
#X connect 95 0 111 0;
#X connect 96 0 112 0;
#X connect 97 0 113 0;
#X connect 121 0 122 0;
#X connect 121 0 122 1;
#X connect 123 0 124 0;
#X connect 123 1 128 0;
#X connect 123 2 132 0;
#X connect 123 3 136 0;
#X connect 123 4 139 0;
#X connect 123 5 142 0;
#X connect 123 6 145 0;
#X connect 123 7 148 0;
#X connect 124 0 151 0;
#X connect 125 0 126 0;
#X connect 126 0 159 0;
#X connect 128 0 125 0;
#X connect 129 0 130 0;
#X connect 130 0 160 0;
#X connect 132 0 129 0;
#X connect 133 0 134 0;
#X connect 134 0 161 0;
#X connect 136 0 133 0;
#X connect 137 0 138 0;
#X connect 137 0 138 1;
#X connect 139 0 153 0;
#X connect 140 0 141 0;
#X connect 141 0 166 0;
#X connect 142 0 140 0;
#X connect 143 0 144 0;
#X connect 144 0 167 0;
#X connect 145 0 143 0;
#X connect 146 0 147 1;
#X connect 146 0 147 0;
#X connect 148 0 156 0;
#X connect 149 0 150 0;
#X connect 150 0 123 0;
#X connect 151 0 152 0;
#X connect 152 0 201 0;
#X connect 153 0 154 0;
#X connect 154 0 155 0;
#X connect 155 0 172 0;
#X connect 156 0 157 0;
#X connect 157 0 158 0;
#X connect 158 0 173 0;
#X connect 159 0 127 0;
#X connect 159 1 127 1;
#X connect 160 0 131 0;
#X connect 160 1 131 1;
#X connect 161 0 135 0;
#X connect 161 1 135 1;
#X connect 162 0 160 1;
#X connect 163 0 162 0;
#X connect 163 0 159 1;
#X connect 166 0 164 0;
#X connect 166 1 164 1;
#X connect 167 0 165 0;
#X connect 167 1 165 1;
#X connect 168 0 169 0;
#X connect 168 0 167 1;
#X connect 169 0 166 1;
#X connect 170 0 161 1;
#X connect 171 0 121 0;
#X connect 172 0 137 0;
#X connect 173 0 146 0;
#X connect 175 0 121 1;
#X connect 176 0 126 1;
#X connect 177 0 130 1;
#X connect 178 0 134 1;
#X connect 179 0 137 1;
#X connect 180 0 141 1;
#X connect 181 0 144 1;
#X connect 182 0 146 1;
#X connect 183 0 155 1;
#X connect 184 0 163 0;
#X connect 185 0 170 0;
#X connect 186 0 168 0;
#X connect 188 0 13 0;
#X connect 189 0 158 1;
#X connect 190 0 72 0;
#X connect 191 0 73 0;
#X connect 192 0 74 0;
#X connect 196 0 197 0;
#X connect 196 0 201 1;
#X connect 197 0 199 0;
#X connect 198 0 197 0;
#X connect 200 0 198 0;
#X connect 201 0 171 0;
#X connect 202 0 67 0;
#X connect 203 0 202 0;
#X connect 204 0 68 0;
#X connect 205 0 70 0;
