#N canvas 3 54 1351 686 10;
#X declare -lib mrpeach;
#X obj 240 153 tgl 15 0 empty empty empty 17 7 0 10 -262144 -1 -1 1
1;
#X text 171 150 start/stop;
#X obj 387 152 tgl 15 0 empty empty empty 17 7 0 10 -262144 -1 -1 1
1;
#X text 405 147 loop;
#X obj 66 19 loadbang;
#X msg 240 126 1;
#X obj 66 46 delay 100;
#X msg 66 67 \; pd dsp 1;
#X obj 432 6 import mrpeach;
#X obj 432 52 unpackOSC;
#X obj 448 76 print OSC;
#X obj 432 33 udpreceive 8000;
#N canvas 3 54 681 686 readeeg_producenumbers 0;
#X obj 210 78 read_eeg_8;
#X obj 153 216 select_max_8;
#X obj 82 253 bng 15 1000 50 0 empty empty empty 17 7 0 10 -262144
-1 -1;
#X obj 102 253 bng 15 1000 50 0 empty empty empty 17 7 0 10 -262144
-1 -1;
#X obj 122 253 bng 15 1000 50 0 empty empty empty 17 7 0 10 -262144
-1 -1;
#X obj 142 253 bng 15 1000 50 0 empty empty empty 17 7 0 10 -262144
-1 -1;
#X obj 162 253 bng 15 1000 50 0 empty empty empty 17 7 0 10 -262144
-1 -1;
#X obj 182 253 bng 15 1000 50 0 empty empty empty 17 7 0 10 -262144
-1 -1;
#X obj 202 253 bng 15 1000 50 0 empty empty empty 17 7 0 10 -262144
-1 -1;
#X obj 222 253 bng 15 1000 50 0 empty empty empty 17 7 0 10 -262144
-1 -1;
#X msg 12 287 0;
#X msg 42 287 1;
#X msg 72 287 2;
#X msg 102 287 3;
#X msg 132 287 4;
#X msg 162 287 5;
#X msg 192 287 6;
#X msg 222 287 7;
#X obj 210 173 t f f;
#X obj 250 173 t f f;
#X obj 290 173 t f f;
#X obj 330 173 t f f;
#X obj 370 173 t f f;
#X obj 410 173 t f f;
#X obj 450 173 t f f;
#X obj 490 173 t f f;
#X obj 210 104 normalize_eeg;
#X floatatom 210 147 5 0 0 0 - - -;
#X floatatom 250 147 5 0 0 0 - - -;
#X floatatom 290 147 5 0 0 0 - - -;
#X floatatom 330 147 5 0 0 0 - - -;
#X floatatom 370 147 5 0 0 0 - - -;
#X floatatom 410 147 5 0 0 0 - - -;
#X floatatom 450 147 5 0 0 0 - - -;
#X floatatom 490 147 5 0 0 0 - - -;
#X obj 12 496 unpack f f f f f f f f;
#X obj 12 530 / 2;
#X obj 42 530 / 2;
#X obj 72 530 / 2;
#X obj 102 530 / 2;
#X obj 132 530 / 2;
#X obj 162 530 / 2;
#X obj 192 530 / 2;
#X obj 222 530 / 2;
#X msg 32 335 0.2 0.1 0.2 0.1 0 0.1 0.2 0.1;
#X msg 52 354 0.1 0.17 0.1 0.03 0.2 0.03 0.1 0.17;
#X msg 73 373 0.2 0.25 0.2 0.15 0.1 0.05 0.01 0.01;
#X msg 107 414 0.2 0.1 0.2 0.1 0 0.1 0.2 0.1;
#X msg 88 394 0.3 0.17 0.2 0.03 0.2 0.03 0.1 0.17;
#X msg 120 433 0.3 0.03 0.1 0.17 0.2 0.17 0.1 0.03;
#X msg 134 453 0.2 0 0.2 0 0 0.2 0.3 0.2;
#X msg 12 316 0.3 0.03 0.1 0.17 0.2 0.17 0.1 0.03;
#X obj 12 568 outlet;
#X obj 42 598 outlet;
#X obj 72 628 outlet;
#X obj 102 655 outlet;
#X obj 132 568 outlet;
#X obj 162 598 outlet;
#X obj 192 628 outlet;
#X obj 222 655 outlet;
#X obj 210 33 inlet;
#X obj 267 33 inlet;
#X connect 0 0 26 0;
#X connect 0 1 26 1;
#X connect 0 2 26 2;
#X connect 0 3 26 3;
#X connect 0 4 26 4;
#X connect 0 5 26 5;
#X connect 0 6 26 6;
#X connect 0 7 26 7;
#X connect 1 0 2 0;
#X connect 1 1 3 0;
#X connect 1 2 4 0;
#X connect 1 3 5 0;
#X connect 1 4 6 0;
#X connect 1 5 7 0;
#X connect 1 6 8 0;
#X connect 1 7 9 0;
#X connect 2 0 10 0;
#X connect 3 0 11 0;
#X connect 4 0 12 0;
#X connect 5 0 13 0;
#X connect 6 0 14 0;
#X connect 7 0 15 0;
#X connect 8 0 16 0;
#X connect 9 0 17 0;
#X connect 10 0 51 0;
#X connect 11 0 44 0;
#X connect 12 0 45 0;
#X connect 13 0 46 0;
#X connect 14 0 48 0;
#X connect 15 0 47 0;
#X connect 16 0 49 0;
#X connect 17 0 50 0;
#X connect 18 0 1 0;
#X connect 19 0 1 1;
#X connect 20 0 1 2;
#X connect 21 0 1 3;
#X connect 22 0 1 4;
#X connect 23 0 1 5;
#X connect 24 0 1 6;
#X connect 25 0 1 7;
#X connect 26 0 27 0;
#X connect 26 1 28 0;
#X connect 26 2 29 0;
#X connect 26 3 30 0;
#X connect 26 4 31 0;
#X connect 26 5 32 0;
#X connect 26 6 33 0;
#X connect 26 7 34 0;
#X connect 27 0 18 0;
#X connect 28 0 19 0;
#X connect 29 0 20 0;
#X connect 30 0 21 0;
#X connect 31 0 22 0;
#X connect 32 0 23 0;
#X connect 33 0 24 0;
#X connect 34 0 25 0;
#X connect 35 0 36 0;
#X connect 35 1 37 0;
#X connect 35 2 38 0;
#X connect 35 3 39 0;
#X connect 35 4 40 0;
#X connect 35 5 41 0;
#X connect 35 6 42 0;
#X connect 35 7 43 0;
#X connect 36 0 52 0;
#X connect 37 0 53 0;
#X connect 38 0 54 0;
#X connect 39 0 55 0;
#X connect 40 0 56 0;
#X connect 41 0 57 0;
#X connect 42 0 58 0;
#X connect 43 0 59 0;
#X connect 44 0 35 0;
#X connect 45 0 35 0;
#X connect 46 0 35 0;
#X connect 47 0 35 0;
#X connect 48 0 35 0;
#X connect 49 0 35 0;
#X connect 50 0 35 0;
#X connect 51 0 35 0;
#X connect 60 0 0 0;
#X connect 61 0 0 1;
#X restore 240 176 pd readeeg_producenumbers;
#X msg 47 249 \$1 2000;
#X obj 47 271 line;
#X msg 105 249 \$1 2000;
#X obj 105 271 line;
#X msg 165 249 \$1 2000;
#X obj 165 271 line;
#X msg 225 249 \$1 2000;
#X obj 225 271 line;
#X msg 285 249 \$1 2000;
#X obj 285 271 line;
#X msg 345 249 \$1 2000;
#X obj 345 271 line;
#X msg 405 249 \$1 2000;
#X obj 405 271 line;
#X msg 465 249 \$1 2000;
#X obj 465 271 line;
#X obj 47 298 s v1;
#X obj 105 299 s v2;
#X obj 165 300 s v3;
#X obj 225 301 s v4;
#X obj 285 302 s v5;
#X obj 345 302 s v6;
#X obj 405 304 s v7;
#X obj 465 301 s v8;
#X obj 39 539 *~ 0;
#X obj 40 573 dac~;
#X obj 40 395 unpack f f f f f f f f;
#X obj 40 431 mtof;
#X obj 110 455 osc~;
#X obj 109 539 *~ 0;
#X obj 108 574 dac~;
#X obj 110 431 mtof;
#X obj 170 455 osc~;
#X obj 169 539 *~ 0;
#X obj 168 573 dac~;
#X obj 170 431 mtof;
#X obj 230 455 osc~;
#X obj 229 539 *~ 0;
#X obj 230 573 dac~;
#X obj 230 431 mtof;
#X obj 289 539 *~ 0;
#X obj 290 573 dac~;
#X obj 290 431 mtof;
#X obj 360 455 osc~;
#X obj 359 539 *~ 0;
#X obj 360 431 mtof;
#X obj 420 455 osc~;
#X obj 419 539 *~ 0;
#X obj 420 431 mtof;
#X obj 479 539 *~ 0;
#X obj 480 573 dac~;
#X obj 480 431 mtof;
#X obj 40 345 loadbang;
#X obj 40 458 phasor~;
#X obj 40 477 triangle~;
#X obj 290 459 phasor~;
#X obj 290 477 triangle~;
#X obj 480 459 phasor~;
#X obj 480 477 triangle~;
#X obj 358 574 dac~;
#X obj 418 573 dac~;
#X text 104 342 8 voices no thirds 2 pairs of beat frequencies;
#X obj 60 514 r v1;
#X obj 130 513 r v2;
#X obj 190 516 r v3;
#X obj 250 513 r v4;
#X obj 310 515 r v5;
#X obj 380 515 r v6;
#X obj 440 514 r v7;
#X obj 500 516 r v8;
#X obj 485 147 routeOSC /0 /1 /2 /3 /4 /5 /6 /7;
#X obj 432 98 routeOSC /eeg /voice /param;
#X obj 604 216 routeOSC /0 /1 /2 /3 /4 /5;
#X msg 40 371 60 62 65 67 69 72 77 79;
#X connect 0 0 12 0;
#X connect 2 0 12 1;
#X connect 4 0 5 0;
#X connect 4 0 6 0;
#X connect 5 0 2 0;
#X connect 5 0 0 0;
#X connect 6 0 7 0;
#X connect 9 0 10 0;
#X connect 9 0 84 0;
#X connect 11 0 9 0;
#X connect 12 0 13 0;
#X connect 12 1 15 0;
#X connect 12 2 17 0;
#X connect 12 3 19 0;
#X connect 12 4 21 0;
#X connect 12 5 23 0;
#X connect 12 6 25 0;
#X connect 12 7 27 0;
#X connect 13 0 14 0;
#X connect 14 0 29 0;
#X connect 15 0 16 0;
#X connect 16 0 30 0;
#X connect 17 0 18 0;
#X connect 18 0 31 0;
#X connect 19 0 20 0;
#X connect 20 0 32 0;
#X connect 21 0 22 0;
#X connect 22 0 33 0;
#X connect 23 0 24 0;
#X connect 24 0 34 0;
#X connect 25 0 26 0;
#X connect 26 0 35 0;
#X connect 27 0 28 0;
#X connect 28 0 36 0;
#X connect 37 0 38 0;
#X connect 37 0 38 1;
#X connect 39 0 40 0;
#X connect 39 1 44 0;
#X connect 39 2 48 0;
#X connect 39 3 52 0;
#X connect 39 4 55 0;
#X connect 39 5 58 0;
#X connect 39 6 61 0;
#X connect 39 7 64 0;
#X connect 40 0 66 0;
#X connect 41 0 42 0;
#X connect 42 0 43 0;
#X connect 42 0 43 1;
#X connect 44 0 41 0;
#X connect 45 0 46 0;
#X connect 46 0 47 0;
#X connect 46 0 47 1;
#X connect 48 0 45 0;
#X connect 49 0 50 0;
#X connect 50 0 51 0;
#X connect 50 0 51 1;
#X connect 52 0 49 0;
#X connect 53 0 54 0;
#X connect 53 0 54 1;
#X connect 55 0 68 0;
#X connect 56 0 57 0;
#X connect 57 0 72 0;
#X connect 57 0 72 1;
#X connect 58 0 56 0;
#X connect 59 0 60 0;
#X connect 60 0 73 0;
#X connect 60 0 73 1;
#X connect 61 0 59 0;
#X connect 62 0 63 1;
#X connect 62 0 63 0;
#X connect 64 0 70 0;
#X connect 65 0 86 0;
#X connect 66 0 67 0;
#X connect 67 0 37 0;
#X connect 68 0 69 0;
#X connect 69 0 53 0;
#X connect 70 0 71 0;
#X connect 71 0 62 0;
#X connect 75 0 37 1;
#X connect 76 0 42 1;
#X connect 77 0 46 1;
#X connect 78 0 50 1;
#X connect 79 0 53 1;
#X connect 80 0 57 1;
#X connect 81 0 60 1;
#X connect 82 0 62 1;
#X connect 83 0 13 0;
#X connect 83 1 15 0;
#X connect 83 2 17 0;
#X connect 83 3 19 0;
#X connect 83 4 21 0;
#X connect 83 5 23 0;
#X connect 83 6 25 0;
#X connect 83 7 27 0;
#X connect 84 0 0 0;
#X connect 84 1 83 0;
#X connect 84 2 85 0;
#X connect 86 0 39 0;
