#N canvas 490 54 873 686 10;
#X declare -lib mrpeach;
#X obj 240 103 read_eeg_8;
#X obj 240 83 tgl 15 0 empty empty empty 17 7 0 10 -262144 -1 -1 1
1;
#X text 166 80 start/stop;
#X obj 182 346 select_max_8;
#X obj 111 433 bng 15 1000 50 0 empty empty empty 17 7 0 10 -262144
-1 -1;
#X obj 131 433 bng 15 1000 50 0 empty empty empty 17 7 0 10 -262144
-1 -1;
#X obj 151 433 bng 15 1000 50 0 empty empty empty 17 7 0 10 -262144
-1 -1;
#X obj 171 433 bng 15 1000 50 0 empty empty empty 17 7 0 10 -262144
-1 -1;
#X obj 191 433 bng 15 1000 50 0 empty empty empty 17 7 0 10 -262144
-1 -1;
#X obj 211 433 bng 15 1000 50 0 empty empty empty 17 7 0 10 -262144
-1 -1;
#X obj 231 433 bng 15 1000 50 0 empty empty empty 17 7 0 10 -262144
-1 -1;
#X obj 251 433 bng 15 1000 50 0 empty empty empty 17 7 0 10 -262144
-1 -1;
#X msg 41 467 0;
#X msg 71 467 1;
#X msg 101 467 2;
#X msg 131 467 3;
#X msg 161 467 4;
#X msg 191 467 5;
#X msg 221 467 6;
#X msg 251 467 7;
#X obj 251 551 chorus_filter_pan;
#X obj 240 233 t f f;
#X obj 280 233 t f f;
#X obj 320 233 t f f;
#X obj 360 233 t f f;
#X obj 400 233 t f f;
#X obj 440 233 t f f;
#X obj 480 233 t f f;
#X obj 520 233 t f f;
#X obj 240 144 normalize_eeg;
#X floatatom 240 207 5 0 0 0 - - -;
#X floatatom 280 207 5 0 0 0 - - -;
#X floatatom 320 207 5 0 0 0 - - -;
#X floatatom 360 207 5 0 0 0 - - -;
#X floatatom 400 207 5 0 0 0 - - -;
#X floatatom 440 207 5 0 0 0 - - -;
#X floatatom 480 207 5 0 0 0 - - -;
#X floatatom 520 207 5 0 0 0 - - -;
#X obj 297 82 tgl 15 0 empty empty empty 17 7 0 10 -262144 -1 -1 1
1;
#X text 315 78 loop;
#X obj 406 19 loadbang;
#X msg 275 36 1;
#X obj 406 46 delay 100;
#X msg 406 67 \; pd dsp 1;
#X obj 542 36 import mrpeach;
#X obj 542 82 unpackOSC;
#X obj 558 106 print OSC;
#X obj 542 63 udpreceive 8000;
#X text 622 148 controls;
#X obj 542 128 routeOSC /eeg;
#X connect 0 0 29 0;
#X connect 0 1 29 1;
#X connect 0 2 29 2;
#X connect 0 3 29 3;
#X connect 0 4 29 4;
#X connect 0 5 29 5;
#X connect 0 6 29 6;
#X connect 0 7 29 7;
#X connect 1 0 0 0;
#X connect 3 0 4 0;
#X connect 3 1 5 0;
#X connect 3 2 6 0;
#X connect 3 3 7 0;
#X connect 3 4 8 0;
#X connect 3 5 9 0;
#X connect 3 6 10 0;
#X connect 3 7 11 0;
#X connect 4 0 12 0;
#X connect 5 0 13 0;
#X connect 6 0 14 0;
#X connect 7 0 15 0;
#X connect 8 0 16 0;
#X connect 9 0 17 0;
#X connect 10 0 18 0;
#X connect 11 0 19 0;
#X connect 12 0 20 0;
#X connect 13 0 20 0;
#X connect 14 0 20 0;
#X connect 15 0 20 0;
#X connect 16 0 20 0;
#X connect 17 0 20 0;
#X connect 18 0 20 0;
#X connect 19 0 20 0;
#X connect 21 0 3 0;
#X connect 21 1 20 1;
#X connect 22 0 3 1;
#X connect 22 1 20 2;
#X connect 23 0 3 2;
#X connect 23 1 20 3;
#X connect 24 0 3 3;
#X connect 24 1 20 4;
#X connect 25 0 3 4;
#X connect 25 1 20 5;
#X connect 26 0 3 5;
#X connect 26 1 20 6;
#X connect 27 0 3 6;
#X connect 28 0 3 7;
#X connect 29 0 30 0;
#X connect 29 1 31 0;
#X connect 29 2 32 0;
#X connect 29 3 33 0;
#X connect 29 4 34 0;
#X connect 29 5 35 0;
#X connect 29 6 36 0;
#X connect 29 7 37 0;
#X connect 30 0 21 0;
#X connect 31 0 22 0;
#X connect 32 0 23 0;
#X connect 33 0 24 0;
#X connect 34 0 25 0;
#X connect 35 0 26 0;
#X connect 36 0 27 0;
#X connect 37 0 28 0;
#X connect 38 0 0 1;
#X connect 40 0 41 0;
#X connect 40 0 42 0;
#X connect 41 0 38 0;
#X connect 41 0 1 0;
#X connect 42 0 43 0;
#X connect 45 0 46 0;
#X connect 45 0 49 0;
#X connect 47 0 45 0;
#X connect 49 0 1 0;
#X connect 49 1 20 7;
