#N canvas 3 55 1438 519 10;
#X obj 37 222 expr ($f1-$f2)/$f3;
#X msg 89 203 0.0913;
#X msg 142 203 0.1976;
#X obj 187 222 expr ($f1-$f2)/$f3;
#X obj 340 222 expr ($f1-$f2)/$f3;
#X obj 490 222 expr ($f1-$f2)/$f3;
#X obj 643 222 expr ($f1-$f2)/$f3;
#X obj 793 222 expr ($f1-$f2)/$f3;
#X obj 945 222 expr ($f1-$f2)/$f3;
#X obj 1095 222 expr ($f1-$f2)/$f3;
#X msg 239 203 0.0446;
#X msg 292 203 0.0393;
#X msg 392 203 0.0547;
#X msg 445 203 0.0562;
#X msg 542 203 0.0162;
#X msg 595 203 0.0156;
#X msg 695 203 0.011;
#X msg 748 203 0.0076;
#X msg 845 202 0.0076;
#X msg 898 203 0.0054;
#X msg 997 203 0.0023;
#X msg 1050 203 0.0023;
#X msg 1147 203 0.0016;
#X msg 1200 203 0.0012;
#X obj 37 418 outlet;
#X obj 88 418 outlet;
#X obj 137 418 outlet;
#X obj 188 418 outlet;
#X obj 237 418 outlet;
#X obj 288 418 outlet;
#X obj 337 418 outlet;
#X obj 388 418 outlet;
#X obj 37 23 inlet;
#X obj 77 23 inlet;
#X obj 117 23 inlet;
#X obj 157 23 inlet;
#X obj 197 23 inlet;
#X obj 237 23 inlet;
#X obj 277 23 inlet;
#X obj 317 23 inlet;
#X obj 1200 18 loadbang;
#X text 539 48 normalizes eeg data so that 1 std about the mean maps
to [-1 \, 1];
#X connect 0 0 24 0;
#X connect 1 0 0 1;
#X connect 2 0 0 2;
#X connect 3 0 25 0;
#X connect 4 0 26 0;
#X connect 5 0 27 0;
#X connect 6 0 28 0;
#X connect 7 0 29 0;
#X connect 8 0 30 0;
#X connect 9 0 31 0;
#X connect 10 0 3 1;
#X connect 11 0 3 2;
#X connect 12 0 4 1;
#X connect 13 0 4 2;
#X connect 14 0 5 1;
#X connect 15 0 5 2;
#X connect 16 0 6 1;
#X connect 17 0 6 2;
#X connect 18 0 7 1;
#X connect 19 0 7 2;
#X connect 20 0 8 1;
#X connect 21 0 8 2;
#X connect 22 0 9 1;
#X connect 23 0 9 2;
#X connect 32 0 0 0;
#X connect 33 0 3 0;
#X connect 34 0 4 0;
#X connect 35 0 5 0;
#X connect 36 0 6 0;
#X connect 37 0 7 0;
#X connect 38 0 8 0;
#X connect 38 0 9 0;
#X connect 40 0 1 0;
#X connect 40 0 2 0;
#X connect 40 0 10 0;
#X connect 40 0 12 0;
#X connect 40 0 13 0;
#X connect 40 0 14 0;
#X connect 40 0 15 0;
#X connect 40 0 16 0;
#X connect 40 0 17 0;
#X connect 40 0 18 0;
#X connect 40 0 19 0;
#X connect 40 0 20 0;
#X connect 40 0 21 0;
#X connect 40 0 22 0;
#X connect 40 0 23 0;
#X connect 40 0 11 0;
