#N canvas 232 145 799 844 10;
#N canvas 0 22 450 278 (subpatch) 0;
#X array eegdata 2400 float 2;
#X coords 0 1 2400 -1 200 140 1 0 0;
#X restore -19 50 graph;
#X obj -3 202 loadbang;
#X obj 456 116 cup;
#X obj 496 141 t b f;
#X obj 496 184 spigot;
#X obj 456 56 tgl 15 0 empty empty empty 17 7 0 10 -262144 -1 -1 1
1;
#X obj 529 162 == 297;
#X msg 553 99 -1;
#X text 493 207 loops from 0 to 297;
#X msg -3 227 \; eegdata read eegdata.txt;
#X obj 298 384 tabread eegdata;
#X obj 298 363 + 0;
#X obj 326 405 + 1;
#X obj 354 447 + 2;
#X obj 380 488 + 3;
#X obj 408 529 + 4;
#X obj 436 571 + 5;
#X obj 467 614 + 6;
#X obj 495 656 + 7;
#X obj 326 426 tabread eegdata;
#X obj 353 468 tabread eegdata;
#X obj 380 509 tabread eegdata;
#X obj 436 594 tabread eegdata;
#X obj 408 550 tabread eegdata;
#X obj 495 677 tabread eegdata;
#X obj 467 636 tabread eegdata;
#X obj 143 768 outlet;
#X obj 194 768 outlet;
#X obj 243 768 outlet;
#X obj 294 768 outlet;
#X obj 343 768 outlet;
#X obj 394 768 outlet;
#X obj 443 768 outlet;
#X obj 494 768 outlet;
#X obj 456 37 inlet;
#X obj 456 89 metro 1000;
#X floatatom 456 207 5 0 0 0 - - -;
#X obj 456 227 * 8;
#X obj 456 249 t f f f f f f f f;
#X obj 553 80 spigot;
#X obj 586 56 tgl 15 0 empty empty empty 17 7 0 10 -262144 -1 -1 0
1;
#X obj 586 37 inlet;
#X text 455 13 start/stop;
#X text 582 13 loop/don't loop;
#X connect 1 0 9 0;
#X connect 2 0 3 0;
#X connect 2 0 36 0;
#X connect 3 0 4 0;
#X connect 3 1 6 0;
#X connect 4 0 39 0;
#X connect 5 0 35 0;
#X connect 6 0 4 1;
#X connect 7 0 2 0;
#X connect 10 0 26 0;
#X connect 11 0 10 0;
#X connect 12 0 19 0;
#X connect 13 0 20 0;
#X connect 14 0 21 0;
#X connect 15 0 23 0;
#X connect 16 0 22 0;
#X connect 17 0 25 0;
#X connect 18 0 24 0;
#X connect 19 0 27 0;
#X connect 20 0 28 0;
#X connect 21 0 29 0;
#X connect 22 0 31 0;
#X connect 23 0 30 0;
#X connect 24 0 33 0;
#X connect 25 0 32 0;
#X connect 34 0 5 0;
#X connect 35 0 2 0;
#X connect 36 0 37 0;
#X connect 37 0 38 0;
#X connect 38 0 11 0;
#X connect 38 1 12 0;
#X connect 38 2 13 0;
#X connect 38 3 14 0;
#X connect 38 4 15 0;
#X connect 38 5 16 0;
#X connect 38 6 17 0;
#X connect 38 7 18 0;
#X connect 39 0 7 0;
#X connect 40 0 39 1;
#X connect 41 0 40 0;
