#N canvas 101 386 752 589 10;
#X obj 264 186 max;
#X obj 290 186 max;
#X obj 317 186 max;
#X obj 343 186 max;
#X obj 264 210 max;
#X obj 317 209 max;
#X obj 264 236 max;
#X floatatom 337 283 5 0 0 0 - - -;
#X obj 38 267 expr if($f1==$f9 \, 1 \, 0) \; if($f2==$f9 \, 1 \, 0)
\; if($f3==$f9 \, 1 \, 0) \; if($f4==$f9 \, 1 \, 0) \; if($f5==$f9
\, 1 \, 0) \; if($f6==$f9 \, 1 \, 0) \; if($f7==$f9 \, 1 \, 0) \; if($f8==$f9
\, 1 \, 0);
#X obj 38 524 outlet;
#X obj 71 478 == 1;
#X obj 38 456 t b f;
#X obj 38 498 spigot;
#X obj 108 524 outlet;
#X obj 141 478 == 1;
#X obj 108 456 t b f;
#X obj 108 498 spigot;
#X obj 178 524 outlet;
#X obj 211 478 == 1;
#X obj 178 456 t b f;
#X obj 178 498 spigot;
#X obj 248 524 outlet;
#X obj 281 478 == 1;
#X obj 248 456 t b f;
#X obj 248 498 spigot;
#X obj 318 524 outlet;
#X obj 351 478 == 1;
#X obj 318 456 t b f;
#X obj 318 498 spigot;
#X obj 388 524 outlet;
#X obj 421 478 == 1;
#X obj 388 456 t b f;
#X obj 388 498 spigot;
#X obj 458 524 outlet;
#X obj 491 478 == 1;
#X obj 458 456 t b f;
#X obj 458 498 spigot;
#X obj 528 524 outlet;
#X obj 561 478 == 1;
#X obj 528 456 t b f;
#X obj 528 498 spigot;
#X obj 38 38 inlet;
#X obj 38 60 t f f;
#X obj 78 38 inlet;
#X obj 78 60 t f f;
#X obj 118 38 inlet;
#X obj 118 60 t f f;
#X obj 158 38 inlet;
#X obj 158 60 t f f;
#X obj 198 38 inlet;
#X obj 198 60 t f f;
#X obj 238 38 inlet;
#X obj 238 60 t f f;
#X obj 278 38 inlet;
#X obj 278 60 t f f;
#X obj 318 38 inlet;
#X obj 318 60 t f f;
#X text 415 36 takes 8 floats as inputs outputs a bang from the outlet
which corresponds to the inlet of max value;
#X connect 0 0 4 0;
#X connect 1 0 4 1;
#X connect 2 0 5 0;
#X connect 3 0 5 1;
#X connect 4 0 6 0;
#X connect 5 0 6 1;
#X connect 6 0 7 0;
#X connect 6 0 8 8;
#X connect 8 0 11 0;
#X connect 8 1 15 0;
#X connect 8 2 19 0;
#X connect 8 3 23 0;
#X connect 8 4 27 0;
#X connect 8 5 31 0;
#X connect 8 6 35 0;
#X connect 8 7 39 0;
#X connect 10 0 12 1;
#X connect 11 0 12 0;
#X connect 11 1 10 0;
#X connect 12 0 9 0;
#X connect 14 0 16 1;
#X connect 15 0 16 0;
#X connect 15 1 14 0;
#X connect 16 0 13 0;
#X connect 18 0 20 1;
#X connect 19 0 20 0;
#X connect 19 1 18 0;
#X connect 20 0 17 0;
#X connect 22 0 24 1;
#X connect 23 0 24 0;
#X connect 23 1 22 0;
#X connect 24 0 21 0;
#X connect 26 0 28 1;
#X connect 27 0 28 0;
#X connect 27 1 26 0;
#X connect 28 0 25 0;
#X connect 30 0 32 1;
#X connect 31 0 32 0;
#X connect 31 1 30 0;
#X connect 32 0 29 0;
#X connect 34 0 36 1;
#X connect 35 0 36 0;
#X connect 35 1 34 0;
#X connect 36 0 33 0;
#X connect 38 0 40 1;
#X connect 39 0 40 0;
#X connect 39 1 38 0;
#X connect 40 0 37 0;
#X connect 41 0 42 0;
#X connect 42 0 8 0;
#X connect 42 1 0 0;
#X connect 43 0 44 0;
#X connect 44 0 8 1;
#X connect 44 1 0 1;
#X connect 45 0 46 0;
#X connect 46 0 8 2;
#X connect 46 1 1 0;
#X connect 47 0 48 0;
#X connect 48 0 8 3;
#X connect 48 1 1 1;
#X connect 49 0 50 0;
#X connect 50 0 8 4;
#X connect 50 1 2 0;
#X connect 51 0 52 0;
#X connect 52 0 8 5;
#X connect 52 1 2 1;
#X connect 53 0 54 0;
#X connect 54 0 8 6;
#X connect 54 1 3 0;
#X connect 55 0 56 0;
#X connect 56 0 8 7;
#X connect 56 1 3 1;
