#N canvas 684 54 681 688 10;
#X declare -lib mrpeach;
#X obj -51 570 *~ 0;
#X obj -50 594 dac~;
#X obj -50 416 unpack f f f f f f f f;
#X obj -50 452 mtof;
#X obj 20 476 osc~;
#X obj 19 500 *~ 0;
#X obj 18 605 dac~;
#X obj 20 452 mtof;
#X obj 80 476 osc~;
#X obj 79 500 *~ 0;
#X obj 78 604 dac~;
#X obj 80 452 mtof;
#X obj 140 476 osc~;
#X obj 139 500 *~ 0;
#X obj 140 604 dac~;
#X obj 140 452 mtof;
#X obj 199 580 *~ 0;
#X obj 200 604 dac~;
#X obj 200 452 mtof;
#X obj 270 476 osc~;
#X obj 269 500 *~ 0;
#X obj 270 452 mtof;
#X obj 330 476 osc~;
#X obj 329 500 *~ 0;
#X obj 330 452 mtof;
#X obj 389 580 *~ 0;
#X obj 390 604 dac~;
#X obj 390 452 mtof;
#X obj -50 366 loadbang;
#X msg -50 392 60 62 62.05 65 67 69 69.02 72;
#X obj -50 480 phasor~;
#X obj -50 498 triangle~;
#X obj 200 480 phasor~;
#X obj 200 498 triangle~;
#X obj 200 517 vcf~ 5;
#X obj 390 480 phasor~;
#X obj 390 498 triangle~;
#X obj 390 517 vcf~ 5;
#X obj 18 585 pan~;
#X obj 78 584 pan~;
#X obj 140 577 pan~;
#X obj 99 563 * -1;
#X floatatom 39 535 5 0 0 0 - - -;
#X obj 268 605 dac~;
#X obj 328 604 dac~;
#X obj 268 585 pan~;
#X obj 328 584 pan~;
#X floatatom 289 540 5 0 0 0 - - -;
#X obj 289 564 * -1;
#X floatatom 161 557 5 0 0 0 - - -;
#X text 17 632 binaural beats;
#X text 277 632 binaural beats;
#X obj -50 527 vcf~ 5;
#X obj -50 548 *~ 4;
#X obj 200 538 *~ 4;
#X obj 390 538 *~ 4;
#X text 141 390 8 voices no thirds 2 pairs of beat frequencies;
#X obj 112 3 import mrpeach;
#X obj 112 49 unpackOSC;
#X obj 128 73 print OSC;
#X obj 112 30 udpreceive 8000;
#X obj 77 151 / 1000;
#X msg 77 171 \$1 2000;
#X obj 77 193 line;
#X obj 112 98 routeOSC /note /param;
#X obj 112 128 routeOSC /0 /1 /2 /3 /4 /5 /6 /7;
#X obj 112 192 / 1000;
#X msg 112 212 \$1 2000;
#X obj 112 234 line;
#X obj 147 234 / 1000;
#X msg 147 254 \$1 2000;
#X obj 147 276 line;
#X obj 182 275 / 1000;
#X msg 182 295 \$1 2000;
#X obj 182 317 line;
#X obj 206 151 / 1000;
#X msg 206 171 \$1 2000;
#X obj 206 193 line;
#X obj 241 192 / 1000;
#X msg 241 212 \$1 2000;
#X obj 241 234 line;
#X obj 276 234 / 1000;
#X msg 276 254 \$1 2000;
#X obj 276 276 line;
#X obj 311 275 / 1000;
#X msg 311 295 \$1 2000;
#X obj 311 317 line;
#X obj 412 128 routeOSC /0 /1 /2 /3 /4 /5;
#X msg 412 150 \$1 2000;
#X obj 412 172 vline~;
#X msg 437 192 \$1 2000;
#X obj 437 214 vline~;
#X msg 463 235 \$1 2000;
#X obj 463 257 vline~;
#X obj 488 284 * 0.05;
#X msg 488 305 \$1 2000;
#X obj 514 350 * 0.05;
#X msg 514 371 \$1 2000;
#X obj 540 414 * 0.05;
#X msg 540 435 \$1 2000;
#X obj 488 327 line;
#X obj 514 393 line;
#X obj 540 457 line;
#X connect 0 0 1 0;
#X connect 0 0 1 1;
#X connect 2 0 3 0;
#X connect 2 1 7 0;
#X connect 2 2 11 0;
#X connect 2 3 15 0;
#X connect 2 4 18 0;
#X connect 2 5 21 0;
#X connect 2 6 24 0;
#X connect 2 7 27 0;
#X connect 3 0 30 0;
#X connect 4 0 5 0;
#X connect 5 0 38 0;
#X connect 7 0 4 0;
#X connect 8 0 9 0;
#X connect 9 0 39 0;
#X connect 11 0 8 0;
#X connect 12 0 13 0;
#X connect 13 0 40 0;
#X connect 15 0 12 0;
#X connect 16 0 17 0;
#X connect 16 0 17 1;
#X connect 18 0 32 0;
#X connect 19 0 20 0;
#X connect 20 0 45 0;
#X connect 21 0 19 0;
#X connect 22 0 23 0;
#X connect 23 0 46 0;
#X connect 24 0 22 0;
#X connect 25 0 26 1;
#X connect 25 0 26 0;
#X connect 27 0 35 0;
#X connect 28 0 29 0;
#X connect 29 0 2 0;
#X connect 30 0 31 0;
#X connect 31 0 52 0;
#X connect 32 0 33 0;
#X connect 33 0 34 0;
#X connect 34 0 54 0;
#X connect 35 0 36 0;
#X connect 36 0 37 0;
#X connect 37 0 55 0;
#X connect 38 0 6 0;
#X connect 38 1 6 1;
#X connect 39 0 10 0;
#X connect 39 1 10 1;
#X connect 40 0 14 0;
#X connect 40 1 14 1;
#X connect 41 0 39 1;
#X connect 42 0 41 0;
#X connect 42 0 38 1;
#X connect 45 0 43 0;
#X connect 45 1 43 1;
#X connect 46 0 44 0;
#X connect 46 1 44 1;
#X connect 47 0 48 0;
#X connect 47 0 46 1;
#X connect 48 0 45 1;
#X connect 49 0 40 1;
#X connect 52 0 53 0;
#X connect 53 0 0 0;
#X connect 54 0 16 0;
#X connect 55 0 25 0;
#X connect 58 0 59 0;
#X connect 58 0 64 0;
#X connect 60 0 58 0;
#X connect 61 0 62 0;
#X connect 62 0 63 0;
#X connect 63 0 0 1;
#X connect 64 0 65 0;
#X connect 64 1 87 0;
#X connect 65 0 61 0;
#X connect 65 1 66 0;
#X connect 65 2 69 0;
#X connect 65 3 72 0;
#X connect 65 4 75 0;
#X connect 65 5 78 0;
#X connect 65 6 81 0;
#X connect 65 7 84 0;
#X connect 66 0 67 0;
#X connect 67 0 68 0;
#X connect 68 0 5 1;
#X connect 69 0 70 0;
#X connect 70 0 71 0;
#X connect 71 0 9 1;
#X connect 72 0 73 0;
#X connect 73 0 74 0;
#X connect 74 0 13 1;
#X connect 75 0 76 0;
#X connect 76 0 77 0;
#X connect 77 0 16 1;
#X connect 78 0 79 0;
#X connect 79 0 80 0;
#X connect 80 0 20 1;
#X connect 81 0 82 0;
#X connect 82 0 83 0;
#X connect 83 0 23 1;
#X connect 84 0 85 0;
#X connect 85 0 86 0;
#X connect 86 0 25 1;
#X connect 87 0 88 0;
#X connect 87 1 90 0;
#X connect 87 2 92 0;
#X connect 87 3 94 0;
#X connect 87 4 96 0;
#X connect 87 5 98 0;
#X connect 88 0 89 0;
#X connect 89 0 52 1;
#X connect 90 0 91 0;
#X connect 91 0 34 1;
#X connect 92 0 93 0;
#X connect 93 0 37 1;
#X connect 94 0 95 0;
#X connect 95 0 100 0;
#X connect 96 0 97 0;
#X connect 97 0 101 0;
#X connect 98 0 99 0;
#X connect 99 0 102 0;
#X connect 100 0 42 0;
#X connect 101 0 49 0;
#X connect 102 0 47 0;
