#N canvas 673 308 631 475 10;
#X obj 24 58 pack f f f;
#X obj 24 81 route 1 2 3 4 5 6;
#X obj 24 35 poly 6 1;
#X obj 24 13 inlet;
#X obj 24 358 outlet~;
#X obj 64 212 fmvoice~;
#X obj 177 57 inlet;
#X obj 277 76 inlet;
#X text 178 29 harmonic;
#X text 279 54 index;
#X obj 24 152 fmvoice~;
#X obj 44 182 fmvoice~;
#X obj 84 242 fmvoice~;
#X obj 104 272 fmvoice~;
#X obj 124 302 fmvoice~;
#X obj 381 117 inlet;
#X obj 454 171 inlet;
#X text 377 95 attack;
#X text 453 146 decay;
#X connect 0 0 1 0;
#X connect 1 0 10 0;
#X connect 1 1 11 0;
#X connect 1 2 5 0;
#X connect 1 3 12 0;
#X connect 1 4 13 0;
#X connect 1 5 14 0;
#X connect 2 0 0 0;
#X connect 2 1 0 1;
#X connect 2 2 0 2;
#X connect 3 0 2 0;
#X connect 5 0 4 0;
#X connect 6 0 5 1;
#X connect 6 0 10 1;
#X connect 6 0 11 1;
#X connect 6 0 12 1;
#X connect 6 0 13 1;
#X connect 6 0 14 1;
#X connect 7 0 5 2;
#X connect 7 0 10 2;
#X connect 7 0 11 2;
#X connect 7 0 12 2;
#X connect 7 0 13 2;
#X connect 7 0 14 2;
#X connect 10 0 4 0;
#X connect 11 0 4 0;
#X connect 12 0 4 0;
#X connect 13 0 4 0;
#X connect 14 0 4 0;
#X connect 15 0 10 3;
#X connect 15 0 11 3;
#X connect 15 0 5 3;
#X connect 15 0 12 3;
#X connect 15 0 13 3;
#X connect 15 0 14 3;
#X connect 16 0 10 4;
#X connect 16 0 11 4;
#X connect 16 0 5 4;
#X connect 16 0 12 4;
#X connect 16 0 13 4;
#X connect 16 0 14 4;
