#N canvas 85 142 864 515 10;
#X obj 34 153 sampler;
#X obj 84 193 sampler;
#X obj 134 233 sampler;
#X obj 184 273 sampler;
#X obj 234 313 sampler;
#X obj 284 353 sampler;
#X obj 517 61 loadbang;
#X obj 34 91 OSCroute /0 /1 /2 /3 /4 /5;
#X obj 34 48 inlet;
#X msg 127 131 /home/pi/cyclophone_samples/chimes/c5.wav;
#X msg 177 171 /home/pi/cyclophone_samples/chimes/d5.wav;
#X msg 227 211 /home/pi/cyclophone_samples/chimes/e5.wav;
#X msg 277 251 /home/pi/cyclophone_samples/chimes/g5.wav;
#X msg 327 291 /home/pi/cyclophone_samples/chimes/a5.wav;
#X msg 377 331 /home/pi/cyclophone_samples/chimes/c6.wav;
#X obj 34 460 outlet~;
#X connect 0 0 15 0;
#X connect 1 0 15 0;
#X connect 2 0 15 0;
#X connect 3 0 15 0;
#X connect 4 0 15 0;
#X connect 5 0 15 0;
#X connect 6 0 9 0;
#X connect 6 0 11 0;
#X connect 6 0 12 0;
#X connect 6 0 13 0;
#X connect 6 0 14 0;
#X connect 6 0 10 0;
#X connect 7 0 0 0;
#X connect 7 1 1 0;
#X connect 7 2 2 0;
#X connect 7 3 3 0;
#X connect 7 4 4 0;
#X connect 7 5 5 0;
#X connect 8 0 7 0;
#X connect 9 0 0 1;
#X connect 10 0 1 1;
#X connect 11 0 2 1;
#X connect 12 0 3 1;
#X connect 13 0 4 1;
#X connect 14 0 5 1;
