#N canvas 357 201 864 417 10;
#X obj 34 153 sampler;
#X obj 34 185 dac~;
#X obj 84 193 sampler;
#X obj 84 225 dac~;
#X obj 134 233 sampler;
#X obj 134 265 dac~;
#X obj 184 273 sampler;
#X obj 184 305 dac~;
#X msg 327 291 /home/chrono/cyclophone_samples/chimes/a5.wav;
#X obj 234 313 sampler;
#X obj 234 345 dac~;
#X obj 284 353 sampler;
#X obj 284 385 dac~;
#X msg 127 131 /home/chrono/cyclophone_samples/chimes/c5.wav;
#X msg 177 171 /home/chrono/cyclophone_samples/chimes/d5.wav;
#X msg 227 211 /home/chrono/cyclophone_samples/chimes/e5.wav;
#X msg 277 251 /home/chrono/cyclophone_samples/chimes/g5.wav;
#X msg 377 331 /home/chrono/cyclophone_samples/chimes/c6.wav;
#X obj 517 61 loadbang;
#X obj 517 83 delay 100;
#X msg 517 105 \; pd dsp 1;
#X obj 34 91 OSCroute /0 /1 /2 /3 /4 /5;
#X obj 34 48 inlet;
#X connect 0 0 1 0;
#X connect 0 1 1 1;
#X connect 2 0 3 0;
#X connect 2 1 3 1;
#X connect 4 0 5 0;
#X connect 4 1 5 1;
#X connect 6 0 7 0;
#X connect 6 1 7 1;
#X connect 8 0 9 1;
#X connect 9 0 10 0;
#X connect 9 1 10 1;
#X connect 11 0 12 0;
#X connect 11 1 12 1;
#X connect 13 0 0 1;
#X connect 14 0 2 1;
#X connect 15 0 4 1;
#X connect 16 0 6 1;
#X connect 17 0 11 1;
#X connect 18 0 13 0;
#X connect 18 0 14 0;
#X connect 18 0 15 0;
#X connect 18 0 16 0;
#X connect 18 0 8 0;
#X connect 18 0 17 0;
#X connect 18 0 19 0;
#X connect 19 0 20 0;
#X connect 21 0 0 0;
#X connect 21 1 2 0;
#X connect 21 2 4 0;
#X connect 21 3 6 0;
#X connect 21 4 9 0;
#X connect 21 5 11 0;
#X connect 22 0 21 0;
