#N canvas 712 331 450 300 10;
#X obj 123 148 *~ 0.5;
#X obj 27 60 inlet~;
#X obj 27 238 outlet~;
#X obj 163 64 inlet;
#X obj 294 64 inlet;
#X text 25 32 audio in;
#X text 288 12 feedback level range: 0.0-1.0 default: 0.5;
#X text 159 12 delay time range: 0-1000 (ms) default: 100 ms;
#X obj 67 113 delwrite~ \$0-delname 1000;
#X obj 69 187 delread~ \$0-delname 100;
#X connect 0 0 8 0;
#X connect 1 0 2 0;
#X connect 1 0 8 0;
#X connect 3 0 9 0;
#X connect 4 0 0 1;
#X connect 9 0 0 0;
#X connect 9 0 2 0;
