#N canvas 23 105 768 486 10;
#X obj 44 163 sampler;
#X obj 94 203 sampler;
#X obj 144 243 sampler;
#X obj 194 283 sampler;
#X obj 44 58 inlet;
#X obj 44 410 outlet~;
#X obj 527 71 r sampledir;
#X msg 137 141 \$1/drums/dundunba/dundunba.wav;
#X msg 187 181 \$1/drums/dundunba/kenkeni.wav;
#X msg 237 221 \$1/drums/dundunba/sangban-mute.wav;
#X msg 287 261 \$1/drums/dundunba/sangban.wav;
#X obj 44 100 OSCroute /0 /1 /2 /3;
#X connect 0 0 5 0;
#X connect 0 1 5 0;
#X connect 1 0 5 0;
#X connect 1 1 5 0;
#X connect 2 0 5 0;
#X connect 2 1 5 0;
#X connect 3 0 5 0;
#X connect 3 1 5 0;
#X connect 4 0 11 0;
#X connect 6 0 7 0;
#X connect 6 0 9 0;
#X connect 6 0 10 0;
#X connect 6 0 8 0;
#X connect 7 0 0 1;
#X connect 8 0 1 1;
#X connect 9 0 2 1;
#X connect 10 0 3 1;
#X connect 11 0 0 0;
#X connect 11 1 1 0;
#X connect 11 2 2 0;
#X connect 11 3 3 0;
