#N canvas 1149 265 450 527 10;
#X obj 39 152 mtof;
#X obj 50 280 vline~;
#X obj 39 328 vcf~;
#X floatatom 60 307 5 0 0 0 - - -;
#X obj 40 377 *~;
#X obj 341 229 vline~;
#X msg 341 208 1 \, 0 600;
#X obj 39 173 square~;
#X obj 38 128 t f b b;
#X msg 117 209 500 \, 5000 600;
#X msg 163 252 5000 \, 500 600;
#X obj 117 169 random 3;
#X obj 117 190 select 0 1 2;
#X msg 140 231 100 \, 1000 300 \, 100 300 300;
#X obj 41 421 outlet~;
#X obj 38 95 inlet;
#X text 36 59 give it a midi note;
#X connect 0 0 7 0;
#X connect 1 0 2 1;
#X connect 2 0 4 0;
#X connect 3 0 2 2;
#X connect 4 0 14 0;
#X connect 5 0 4 1;
#X connect 6 0 5 0;
#X connect 7 0 2 0;
#X connect 8 0 0 0;
#X connect 8 1 11 0;
#X connect 8 2 6 0;
#X connect 9 0 1 0;
#X connect 10 0 1 0;
#X connect 11 0 12 0;
#X connect 12 0 9 0;
#X connect 12 1 13 0;
#X connect 12 2 10 0;
#X connect 13 0 1 0;
#X connect 15 0 8 0;
