#N canvas 255 180 562 492 10;
#X obj 99 183 fmsynth~;
#X obj 100 288 *~;
#X obj 156 256 vline~;
#X msg 121 158 5;
#X msg 152 158 700;
#X msg 156 233 \$1 30 \, 0 1000 30;
#X obj 99 83 unpack f f;
#X obj 99 122 mtof;
#X obj 99 51 inlet;
#X text 103 13 pitch/volume pair \, e.g. |60 0.8(;
#X obj 198 106 loadbang;
#X obj 99 357 outlet~;
#X connect 0 0 1 0;
#X connect 1 0 11 0;
#X connect 2 0 1 1;
#X connect 3 0 0 1;
#X connect 4 0 0 2;
#X connect 5 0 2 0;
#X connect 6 0 7 0;
#X connect 6 1 5 0;
#X connect 7 0 0 0;
#X connect 8 0 6 0;
#X connect 10 0 3 0;
#X connect 10 0 4 0;
