#N canvas 255 182 562 492 10;
#X obj 99 183 fmsynth~;
#X obj 100 288 *~;
#X obj 156 256 vline~;
#X msg 264 105 5;
#X msg 156 233 \$1 30 \, 0 1000 30;
#X obj 99 83 unpack f f;
#X obj 99 122 mtof;
#X obj 99 51 inlet;
#X obj 295 76 loadbang;
#X obj 99 357 outlet~;
#X obj 190 50 inlet;
#X obj 250 50 inlet;
#X text 189 27 harmonic;
#X text 250 26 index;
#X text 73 13 pitch/volume pair e.g. |60 0.8(;
#X msg 294 105 900;
#X connect 0 0 1 0;
#X connect 1 0 9 0;
#X connect 2 0 1 1;
#X connect 3 0 0 1;
#X connect 4 0 2 0;
#X connect 5 0 6 0;
#X connect 5 1 4 0;
#X connect 6 0 0 0;
#X connect 7 0 5 0;
#X connect 8 0 3 0;
#X connect 8 0 15 0;
#X connect 10 0 0 1;
#X connect 11 0 0 2;
#X connect 15 0 0 2;
