#N canvas 145 104 767 483 10;
#X obj 44 163 sampler;
#X obj 94 203 sampler;
#X obj 144 243 sampler;
#X obj 194 283 sampler;
#X obj 244 323 sampler;
#X obj 294 363 sampler;
#X obj 527 71 loadbang;
#X obj 44 101 OSCroute /0 /1 /2 /3 /4 /5;
#X obj 44 58 inlet;
#X msg 137 141 /home/pi/cyclophone_samples/koto/c3.wav;
#X msg 187 181 /home/pi/cyclophone_samples/koto/d3.wav;
#X msg 237 221 /home/pi/cyclophone_samples/koto/e3.wav;
#X msg 287 261 /home/pi/cyclophone_samples/koto/g3.wav;
#X msg 337 301 /home/pi/cyclophone_samples/koto/a3.wav;
#X msg 387 341 /home/pi/cyclophone_samples/koto/c4.wav;
#X obj 53 431 outlet~;
#X obj 202 431 outlet~;
#X connect 0 0 15 0;
#X connect 0 1 16 0;
#X connect 1 0 15 0;
#X connect 1 1 16 0;
#X connect 2 0 15 0;
#X connect 2 1 16 0;
#X connect 3 0 15 0;
#X connect 3 1 16 0;
#X connect 4 0 15 0;
#X connect 4 1 16 0;
#X connect 5 0 15 0;
#X connect 5 1 16 0;
#X connect 6 0 9 0;
#X connect 6 0 11 0;
#X connect 6 0 12 0;
#X connect 6 0 13 0;
#X connect 6 0 14 0;
#X connect 6 0 10 0;
#X connect 7 0 0 0;
#X connect 7 1 1 0;
#X connect 7 2 2 0;
#X connect 7 3 3 0;
#X connect 7 4 4 0;
#X connect 7 5 5 0;
#X connect 8 0 7 0;
#X connect 9 0 0 1;
#X connect 10 0 1 1;
#X connect 11 0 2 1;
#X connect 12 0 3 1;
#X connect 13 0 4 1;
#X connect 14 0 5 1;
