#N canvas 770 85 524 455 10;
#X obj 31 212 chimes;
#X obj 32 129 dumpOSC 8000;
#X obj 39 22 loadbang;
#X obj 39 46 delay 100;
#X msg 39 70 \; pd dsp 1;
#X obj 85 212 koto;
#X obj 140 212 rhodes;
#X obj 195 212 tr909;
#X obj 99 306 dac~;
#X obj 64 160 print OSC;
#X text 137 158 use with -stderr to debug;
#X msg 228 46 list /home/chrono/cyclophone_samples;
#X obj 228 81 s sampledir;
#X obj 32 189 OSCroute /chimes /koto /rhodes /tr909;
#X connect 0 0 8 0;
#X connect 0 0 8 1;
#X connect 1 0 9 0;
#X connect 1 0 13 0;
#X connect 2 0 3 0;
#X connect 2 0 11 0;
#X connect 3 0 4 0;
#X connect 5 0 8 0;
#X connect 5 1 8 1;
#X connect 6 0 8 0;
#X connect 6 0 8 1;
#X connect 7 0 8 0;
#X connect 7 0 8 1;
#X connect 11 0 12 0;
#X connect 13 0 0 0;
#X connect 13 1 5 0;
#X connect 13 2 6 0;
#X connect 13 3 7 0;
