#N canvas 769 56 524 672 10;
#X obj 12 192 chimes;
#X obj 12 119 dumpOSC 8000;
#X obj 9 12 loadbang;
#X obj 9 33 delay 100;
#X msg 9 53 \; pd dsp 1;
#X obj 61 192 koto;
#X obj 111 194 rhodes;
#X obj 160 194 tr909;
#X obj 175 456 cpdelay~;
#X obj 24 140 print OSC;
#X text 97 138 use with -stderr to debug;
#X obj 78 66 s sampledir;
#X obj 230 343 * 1000;
#X obj 106 456 cpdelay~;
#X obj 318 270 knob 32 32 0 1 0 0 empty empty empty 0 -8 0 8 -262144
-1 -1 0 1;
#X obj 366 268 knob 32 32 0 1 0 0 empty empty empty 0 -8 0 8 -262144
-1 -1 0 1;
#X obj 12 333 spigot~;
#X obj 122 333 spigot~;
#X obj 190 241 bng 15 250 50 0 empty empty empty 17 7 0 10 -262144
-1 -1;
#X text 186 218 delay on/off;
#X obj 210 192 OSCroute /onoff /time /feedback;
#X obj 12 169 OSCroute /chimes /koto /rhodes /tr909 /delay /kill;
#X obj 11 574 spigot~;
#X obj 71 574 spigot~;
#X obj 390 353 tgl 15 0 empty empty empty 17 7 0 10 -262144 -1 -1 1
1;
#X obj 190 258 tgl 15 0 empty empty empty 17 7 0 10 -262144 -1 -1 1
1;
#X obj 389 228 OSCroute /on /off;
#X msg 390 324 0;
#X msg 438 325 1;
#X obj 12 639 dac~;
#X msg 78 46 list /home/chrono/cyclophone_samples;
#X text 464 324 kill;
#X connect 0 0 16 0;
#X connect 0 0 17 0;
#X connect 1 0 9 0;
#X connect 1 0 21 0;
#X connect 2 0 3 0;
#X connect 2 0 30 0;
#X connect 3 0 4 0;
#X connect 5 0 16 0;
#X connect 5 1 17 0;
#X connect 6 0 16 0;
#X connect 6 0 17 0;
#X connect 7 0 16 0;
#X connect 7 0 17 0;
#X connect 8 0 23 0;
#X connect 12 0 8 1;
#X connect 12 0 13 1;
#X connect 13 0 22 0;
#X connect 14 0 12 0;
#X connect 15 0 13 2;
#X connect 15 0 8 2;
#X connect 16 0 22 0;
#X connect 16 1 13 0;
#X connect 17 0 23 0;
#X connect 17 1 8 0;
#X connect 18 0 25 0;
#X connect 20 0 18 0;
#X connect 20 1 12 0;
#X connect 20 2 13 2;
#X connect 20 2 8 2;
#X connect 21 0 0 0;
#X connect 21 1 5 0;
#X connect 21 2 6 0;
#X connect 21 3 7 0;
#X connect 21 4 20 0;
#X connect 21 5 26 0;
#X connect 22 0 29 0;
#X connect 23 0 29 1;
#X connect 24 0 22 1;
#X connect 24 0 23 1;
#X connect 25 0 16 1;
#X connect 25 0 17 1;
#X connect 26 0 28 0;
#X connect 26 1 27 0;
#X connect 27 0 24 0;
#X connect 28 0 24 0;
#X connect 30 0 11 0;
