#N canvas 155 54 701 672 10;
#X obj 12 252 chimes;
#X obj 12 119 dumpOSC 8000;
#X obj 9 12 loadbang;
#X obj 9 33 delay 100;
#X msg 9 53 \; pd dsp 1;
#X obj 57 272 koto;
#X obj 103 294 rhodes;
#X obj 149 314 tr909;
#X obj 24 140 print OSC;
#X text 97 138 use with -stderr to debug;
#X obj 78 66 s sampledir;
#X text 263 293 delay on/off;
#X obj 241 272 OSCroute /onoff /time /feedback;
#X obj 460 323 tgl 15 0 empty empty empty 17 7 0 10 -262144 -1 -1 0
1;
#X obj 241 296 tgl 15 0 empty empty empty 17 7 0 10 -262144 -1 -1 0
1;
#X obj 459 258 OSCroute /on /off;
#X msg 460 294 0;
#X msg 508 295 1;
#X obj 215 541 dac~;
#X msg 78 46 list /home/pi/cyclophone_samples;
#X text 536 294 kill;
#X obj 195 337 fmpoly6;
#N canvas 759 342 561 355 killdelay 1;
#X obj 15 33 inlet~;
#X obj 68 33 inlet~;
#X obj 14 328 outlet~;
#X obj 169 327 outlet~;
#X obj 120 32 inlet;
#X obj 384 35 inlet;
#X obj 180 216 cpdelay~;
#X obj 93 186 * 1000;
#X obj 70 216 cpdelay~;
#X obj 93 145 knob 32 32 0 1 0 0 empty empty empty 0 -8 0 8 -262144
-1 -1 0 1;
#X obj 201 143 knob 32 32 0 1 0 0 empty empty empty 0 -8 0 8 -262144
-1 -1 0 1;
#X obj 32 83 spigot~;
#X obj 142 83 spigot~;
#X obj 31 254 spigot~;
#X obj 141 254 spigot~;
#X text 17 8 L;
#X text 77 9 R;
#X text 118 7 delay onoff;
#X text 381 9 kill;
#X obj 198 33 inlet;
#X obj 281 33 inlet;
#X text 197 7 delay time;
#X text 278 7 delay feedback;
#X connect 0 0 11 0;
#X connect 1 0 12 0;
#X connect 4 0 11 1;
#X connect 4 0 12 1;
#X connect 5 0 13 1;
#X connect 5 0 14 1;
#X connect 6 0 14 0;
#X connect 7 0 6 1;
#X connect 7 0 8 1;
#X connect 8 0 13 0;
#X connect 9 0 7 0;
#X connect 10 0 8 2;
#X connect 10 0 6 2;
#X connect 11 0 13 0;
#X connect 11 1 8 0;
#X connect 12 0 14 0;
#X connect 12 1 6 0;
#X connect 13 0 2 0;
#X connect 14 0 3 0;
#X connect 19 0 9 0;
#X connect 20 0 10 0;
#X restore 214 478 pd killdelay;
#X obj 12 169 OSCroute /chimes /koto /rhodes /tr909 /fm /delay /kill
;
#X connect 0 0 22 0;
#X connect 0 0 22 1;
#X connect 1 0 8 0;
#X connect 1 0 23 0;
#X connect 2 0 3 0;
#X connect 2 0 19 0;
#X connect 3 0 4 0;
#X connect 5 0 22 0;
#X connect 5 1 22 1;
#X connect 6 0 22 0;
#X connect 6 0 22 1;
#X connect 7 0 22 0;
#X connect 7 0 22 1;
#X connect 12 0 14 0;
#X connect 12 1 22 3;
#X connect 12 2 22 4;
#X connect 13 0 22 5;
#X connect 14 0 22 2;
#X connect 15 0 17 0;
#X connect 15 1 16 0;
#X connect 16 0 13 0;
#X connect 17 0 13 0;
#X connect 19 0 10 0;
#X connect 21 0 22 0;
#X connect 21 0 22 1;
#X connect 22 0 18 0;
#X connect 22 1 18 1;
#X connect 23 0 0 0;
#X connect 23 1 5 0;
#X connect 23 2 6 0;
#X connect 23 3 7 0;
#X connect 23 4 21 0;
#X connect 23 5 12 0;
#X connect 23 6 15 0;
