#N canvas 155 55 701 672 10;
#X obj 12 119 dumpOSC 8000;
#X obj 9 12 loadbang;
#X obj 9 33 delay 100;
#X msg 9 53 \; pd dsp 1;
#X obj 24 140 print OSC;
#X text 97 138 use with -stderr to debug;
#X text 83 373 delay on/off;
#X obj 61 352 OSCroute /onoff /time /feedback;
#X obj 181 473 tgl 15 0 empty empty empty 17 7 0 10 -262144 -1 -1 0
1;
#X obj 61 376 tgl 15 0 empty empty empty 17 7 0 10 -262144 -1 -1 0
1;
#X obj 180 408 OSCroute /on /off;
#X msg 181 444 0;
#X msg 229 445 1;
#X obj 14 561 dac~;
#X text 257 444 kill;
#X obj 12 274 fmpoly6;
#N canvas 727 269 561 355 killdelay 1;
#X obj 15 33 inlet~;
#X obj 68 33 inlet~;
#X obj 14 328 outlet~;
#X obj 169 327 outlet~;
#X obj 120 32 inlet;
#X obj 384 35 inlet;
#X obj 180 216 cpdelay~;
#X obj 93 186 * 1000;
#X obj 93 145 knob 32 32 0 1 0 0 empty empty empty 0 -8 0 8 -262144
-1 -1 0 1;
#X obj 201 143 knob 32 32 0 1 0 0 empty empty empty 0 -8 0 8 -262144
-1 -1 0 1;
#X obj 32 83 spigot~;
#X obj 142 83 spigot~;
#X obj 31 254 spigot~;
#X obj 141 254 spigot~;
#X text 17 8 L;
#X text 77 9 R;
#X text 118 7 delay onoff;
#X text 381 9 kill;
#X obj 198 33 inlet;
#X obj 281 33 inlet;
#X text 197 7 delay time;
#X text 278 7 delay feedback;
#X obj 70 216 cpdelay~;
#X connect 0 0 10 0;
#X connect 1 0 11 0;
#X connect 4 0 10 1;
#X connect 4 0 11 1;
#X connect 5 0 12 1;
#X connect 5 0 13 1;
#X connect 6 0 13 0;
#X connect 7 0 6 1;
#X connect 7 0 22 1;
#X connect 8 0 7 0;
#X connect 9 0 6 2;
#X connect 9 0 22 2;
#X connect 10 0 12 0;
#X connect 10 1 22 0;
#X connect 11 0 13 0;
#X connect 11 1 6 0;
#X connect 12 0 2 0;
#X connect 13 0 3 0;
#X connect 18 0 8 0;
#X connect 19 0 9 0;
#X connect 22 0 12 0;
#X restore 13 498 pd killdelay;
#X obj 12 169 OSCroute /fm /delay /kill;
#X obj 12 203 OSCroute /note /harmonic /index;
#X obj 73 224 * 12;
#X obj 134 225 * 1000;
#X connect 0 0 4 0;
#X connect 0 0 17 0;
#X connect 1 0 2 0;
#X connect 2 0 3 0;
#X connect 7 0 9 0;
#X connect 7 1 16 3;
#X connect 7 2 16 4;
#X connect 8 0 16 5;
#X connect 9 0 16 2;
#X connect 10 0 12 0;
#X connect 10 1 11 0;
#X connect 11 0 8 0;
#X connect 12 0 8 0;
#X connect 15 0 16 0;
#X connect 15 0 16 1;
#X connect 16 0 13 0;
#X connect 16 1 13 1;
#X connect 17 0 18 0;
#X connect 17 1 7 0;
#X connect 17 2 10 0;
#X connect 18 0 15 0;
#X connect 18 1 19 0;
#X connect 18 2 20 0;
#X connect 19 0 15 1;
#X connect 20 0 15 2;
