#N canvas 783 132 524 363 10;
#X obj 12 119 dumpOSC 8000;
#X obj 9 12 loadbang;
#X obj 9 33 delay 100;
#X msg 9 53 \; pd dsp 1;
#X obj 24 140 print OSC;
#X text 97 138 use with -stderr to debug;
#X obj 11 305 dac~;
#X obj 12 169 OSCroute /fm;
#X obj 12 233 fmpoly6;
#X connect 0 0 4 0;
#X connect 0 0 7 0;
#X connect 1 0 2 0;
#X connect 2 0 3 0;
#X connect 7 0 8 0;
#X connect 8 0 6 0;
#X connect 8 0 6 1;
