#N canvas 872 126 450 300 10;
#X obj 34 106 chimes;
#X obj 34 56 dumpOSC 8000;
#X obj 312 46 loadbang;
#X obj 312 70 delay 100;
#X msg 312 94 \; pd dsp 1;
#X obj 88 106 koto;
#X obj 143 106 rhodes;
#X obj 198 106 tr909;
#X obj 34 82 OSCroute /chimes /koto /rhodes /tr909;
#X connect 1 0 8 0;
#X connect 2 0 3 0;
#X connect 3 0 4 0;
#X connect 8 0 0 0;
#X connect 8 1 5 0;
#X connect 8 2 6 0;
#X connect 8 3 7 0;
