#N canvas 839 266 524 455 10;
#X obj 31 212 chimes;
#X obj 32 129 dumpOSC 8000;
#X obj 39 22 loadbang;
#X obj 39 46 delay 100;
#X msg 39 70 \; pd dsp 1;
#X obj 85 212 koto;
#X obj 140 212 rhodes;
#X obj 195 212 tr909;
#X obj 32 189 OSCroute /chimes /koto /rhodes /tr909 /delay;
#X obj 240 212 OSCroute /time /feedback;
#X obj 31 402 dac~;
#X obj 193 327 cpdelay~;
#X obj 64 160 print OSC;
#X text 137 158 use with -stderr to debug;
#X obj 228 81 s sampledir;
#X obj 240 283 * 1000;
#X msg 228 46 list /home/chrono/cyclophone_samples;
#X obj 240 238 knob 32 32 0 1 0 0 empty empty empty 0 -8 0 8 -262144
-1 -1 0 1;
#X obj 310 237 knob 32 32 0 1 0 0 empty empty empty 0 -8 0 8 -262144
-1 -1 0 1;
#X obj 32 331 cpdelay~;
#X connect 0 0 11 0;
#X connect 0 0 19 0;
#X connect 1 0 8 0;
#X connect 1 0 12 0;
#X connect 2 0 3 0;
#X connect 2 0 16 0;
#X connect 3 0 4 0;
#X connect 5 0 19 0;
#X connect 5 1 11 0;
#X connect 6 0 11 0;
#X connect 6 0 19 0;
#X connect 7 0 11 0;
#X connect 7 0 19 0;
#X connect 8 0 0 0;
#X connect 8 1 5 0;
#X connect 8 2 6 0;
#X connect 8 3 7 0;
#X connect 8 4 9 0;
#X connect 9 0 17 0;
#X connect 9 1 18 0;
#X connect 11 0 10 1;
#X connect 15 0 11 1;
#X connect 15 0 19 1;
#X connect 16 0 14 0;
#X connect 17 0 15 0;
#X connect 18 0 11 2;
#X connect 18 0 19 2;
#X connect 19 0 10 0;
