#N canvas 642 55 701 672 10;
#X obj 12 9 dumpOSC 8000;
#X obj 361 7 loadbang;
#X obj 361 28 delay 100;
#X msg 629 46 \; pd dsp 1;
#X obj 24 30 print OSC;
#X text 97 28 use with -stderr to debug;
#X text 83 263 delay on/off;
#X obj 61 242 OSCroute /onoff /time /feedback;
#X obj 181 363 tgl 15 0 empty empty empty 17 7 0 10 -262144 -1 -1 0
1;
#X obj 61 266 tgl 15 0 empty empty empty 17 7 0 10 -262144 -1 -1 0
1;
#X obj 180 298 OSCroute /on /off;
#X msg 181 334 0;
#X msg 229 335 1;
#X obj 11 521 dac~;
#X text 257 334 kill;
#X obj 12 164 fmpoly6;
#N canvas 727 270 561 355 killdelay 0;
#X obj 33 33 inlet~;
#X obj 30 328 outlet~;
#X obj 89 32 inlet;
#X obj 353 35 inlet;
#X obj 93 186 * 1000;
#X obj 93 145 knob 32 32 0 1 0 0 empty empty empty 0 -8 0 8 -262144
-1 -1 0 1;
#X obj 161 146 knob 32 32 0 1 0 0 empty empty empty 0 -8 0 8 -262144
-1 -1 0 1;
#X obj 32 83 spigot~;
#X obj 31 284 spigot~;
#X text 87 7 delay onoff;
#X text 350 9 kill;
#X obj 167 33 inlet;
#X obj 250 33 inlet;
#X text 166 7 delay time;
#X text 247 7 delay feedback;
#X obj 70 216 cpdelay~;
#X text 35 8 signal;
#X connect 0 0 7 0;
#X connect 2 0 7 1;
#X connect 3 0 8 1;
#X connect 4 0 15 1;
#X connect 5 0 4 0;
#X connect 6 0 15 2;
#X connect 7 0 8 0;
#X connect 7 1 15 0;
#X connect 8 0 1 0;
#X connect 11 0 5 0;
#X connect 12 0 6 0;
#X connect 15 0 8 0;
#X restore 13 388 pd killdelay;
#X obj 12 93 OSCroute /note /harmonic /index;
#X obj 73 114 * 12;
#X obj 134 115 * 1000;
#X obj 12 475 loopstation;
#X obj 33 415 cup;
#X obj 33 435 mod 3;
#X obj 33 454 select 0 1 2;
#X text 78 434 this cycles one bang between 3;
#X obj 361 77 sampler;
#X msg 361 57 1;
#X obj 362 109 dac~;
#X msg 454 57 /home/pi/starsplash.wav;
#N canvas 86 339 450 300 drums 1;
#X obj 31 115 tr909;
#X obj 94 115 dundunba;
#X obj 158 115 rx21latin;
#X obj 30 226 outlet~;
#X obj 222 115 tabla;
#X obj 31 85 OSCroute /tr909 /dundunba /rx21latin /tabla;
#X obj 31 37 inlet;
#X connect 0 0 3 0;
#X connect 1 0 3 0;
#X connect 2 0 3 0;
#X connect 4 0 3 0;
#X connect 5 0 0 0;
#X connect 5 1 1 0;
#X connect 5 2 2 0;
#X connect 5 3 4 0;
#X connect 6 0 5 0;
#X restore 192 162 pd drums;
#X obj 436 156 s sampledir;
#X obj 12 59 OSCroute /fm /delay /kill /loop /drums;
#X msg 436 133 list /home/pi/cyclophone_samples;
#X connect 0 0 4 0;
#X connect 0 0 31 0;
#X connect 1 0 2 0;
#X connect 1 0 32 0;
#X connect 2 0 3 0;
#X connect 2 0 26 0;
#X connect 2 0 28 0;
#X connect 7 0 9 0;
#X connect 7 1 16 2;
#X connect 7 2 16 3;
#X connect 8 0 16 4;
#X connect 9 0 16 1;
#X connect 10 0 12 0;
#X connect 10 1 11 0;
#X connect 11 0 8 0;
#X connect 12 0 8 0;
#X connect 15 0 16 0;
#X connect 16 0 20 0;
#X connect 17 0 15 0;
#X connect 17 1 18 0;
#X connect 17 2 19 0;
#X connect 18 0 15 1;
#X connect 19 0 15 2;
#X connect 20 0 13 0;
#X connect 20 0 13 1;
#X connect 21 0 22 0;
#X connect 22 0 23 0;
#X connect 23 0 20 1;
#X connect 23 1 20 2;
#X connect 23 2 20 3;
#X connect 25 0 27 0;
#X connect 25 1 27 1;
#X connect 26 0 25 0;
#X connect 28 0 25 1;
#X connect 29 0 16 0;
#X connect 31 0 17 0;
#X connect 31 1 7 0;
#X connect 31 2 10 0;
#X connect 31 3 21 0;
#X connect 31 4 29 0;
#X connect 32 0 30 0;
