#N canvas 572 289 767 437 10;
#X obj 44 163 sampler;
#X obj 44 195 dac~;
#X obj 94 203 sampler;
#X obj 94 235 dac~;
#X obj 144 243 sampler;
#X obj 144 275 dac~;
#X obj 194 283 sampler;
#X obj 194 315 dac~;
#X obj 244 323 sampler;
#X obj 244 355 dac~;
#X obj 294 363 sampler;
#X obj 294 395 dac~;
#X obj 527 71 loadbang;
#X obj 44 101 OSCroute /0 /1 /2 /3 /4 /5;
#X obj 44 58 inlet;
#X msg 387 341 /home/pi/cyclophone_samples/rhodes/c3.wav;
#X msg 137 141 /home/pi/cyclophone_samples/rhodes/c2.aif;
#X msg 187 181 /home/pi/cyclophone_samples/rhodes/d2.aif;
#X msg 237 221 /home/pi/cyclophone_samples/rhodes/e2.aif;
#X msg 287 261 /home/pi/cyclophone_samples/rhodes/g2.aif;
#X msg 337 301 /home/pi/cyclophone_samples/rhodes/a2.aif;
#X connect 0 0 1 0;
#X connect 0 0 1 1;
#X connect 2 0 3 0;
#X connect 2 0 3 1;
#X connect 4 0 5 0;
#X connect 4 0 5 1;
#X connect 6 0 7 0;
#X connect 6 0 7 1;
#X connect 8 0 9 0;
#X connect 8 0 9 1;
#X connect 10 0 11 0;
#X connect 10 0 11 1;
#X connect 12 0 16 0;
#X connect 12 0 18 0;
#X connect 12 0 19 0;
#X connect 12 0 20 0;
#X connect 12 0 15 0;
#X connect 12 0 17 0;
#X connect 13 0 0 0;
#X connect 13 1 2 0;
#X connect 13 2 4 0;
#X connect 13 3 6 0;
#X connect 13 4 8 0;
#X connect 13 5 10 0;
#X connect 14 0 13 0;
#X connect 15 0 10 1;
#X connect 16 0 0 1;
#X connect 17 0 2 1;
#X connect 18 0 4 1;
#X connect 19 0 6 1;
#X connect 20 0 8 1;
