#N canvas 205 194 368 354 10;
#X obj 24 58 pack f f f;
#X obj 24 81 route 1 2 3 4 5 6;
#X obj 24 35 poly 6 1;
#X obj 24 13 inlet;
#X obj 24 298 outlet~;
#X obj 187 77 inlet;
#X obj 297 86 inlet;
#X obj 24 141 sqbpvoice~;
#X obj 40 161 sqbpvoice~;
#X obj 57 181 sqbpvoice~;
#X obj 73 201 sqbpvoice~;
#X obj 90 221 sqbpvoice~;
#X obj 106 241 sqbpvoice~;
#X text 184 56 center freq;
#X text 294 66 sustain;
#X connect 0 0 1 0;
#X connect 1 0 7 0;
#X connect 1 1 8 0;
#X connect 1 2 9 0;
#X connect 1 3 10 0;
#X connect 1 4 11 0;
#X connect 1 5 12 0;
#X connect 2 0 0 0;
#X connect 2 1 0 1;
#X connect 2 2 0 2;
#X connect 3 0 2 0;
#X connect 5 0 7 1;
#X connect 5 0 8 1;
#X connect 5 0 9 1;
#X connect 5 0 10 1;
#X connect 5 0 11 1;
#X connect 5 0 12 1;
#X connect 6 0 7 2;
#X connect 6 0 8 2;
#X connect 6 0 9 2;
#X connect 6 0 10 2;
#X connect 6 0 11 2;
#X connect 6 0 12 2;
#X connect 7 0 4 0;
#X connect 8 0 4 0;
#X connect 9 0 4 0;
#X connect 10 0 4 0;
#X connect 11 0 4 0;
#X connect 12 0 4 0;
