#N canvas 3 54 1351 686 10;
#X declare -lib mrpeach;
#X obj 149 -9 loadbang;
#X obj 149 12 delay 100;
#X msg 149 36 \; pd dsp 1;
#X obj 12 -17 import mrpeach;
#X obj 12 29 unpackOSC;
#X obj 28 53 print OSC;
#X obj 12 10 udpreceive 8000;
#X obj 12 78 routeOSC /photodiode;
#X obj 12 203 vline~;
#X msg 12 183 \$1 60;
#X obj 11 347 dac~;
#X obj 12 249 osc~;
#X msg 123 203 \$1 60;
#X obj 123 223 vline~;
#X obj 12 100 unpack f f;
#X obj 123 130 / 1023;
#X obj 12 152 expr 400+$f1*400/1023;
#X obj 12 301 *~;
#X obj 194 142 loadbang;
#X msg 194 166 200;
#X msg 231 166 0.1;
#X connect 0 0 1 0;
#X connect 1 0 2 0;
#X connect 4 0 5 0;
#X connect 4 0 7 0;
#X connect 6 0 4 0;
#X connect 7 0 14 0;
#X connect 8 0 11 0;
#X connect 9 0 8 0;
#X connect 11 0 17 0;
#X connect 12 0 13 0;
#X connect 13 0 17 1;
#X connect 14 0 16 0;
#X connect 14 1 15 0;
#X connect 15 0 12 0;
#X connect 16 0 9 0;
#X connect 17 0 10 0;
#X connect 17 0 10 1;
#X connect 18 0 20 0;
#X connect 18 0 19 0;
#X connect 19 0 9 0;
#X connect 20 0 12 0;
