#N canvas 821 178 460 438 10;
#X declare -lib mrpeach;
#X obj 149 -9 loadbang;
#X obj 149 12 delay 100;
#X msg 149 36 \; pd dsp 1;
#X obj 11 601 dac~;
#X obj 12 -17 import mrpeach;
#X obj 12 29 unpackOSC;
#X obj 28 53 print OSC;
#X obj 12 10 udpreceive 8000;
#X obj 12 78 routeOSC /photodiode;
#X obj 12 223 vline~;
#X msg 12 203 \$1 60;
#X obj 11 347 dac~;
#X obj 12 249 osc~;
#X obj 12 301 *~ 1;
#X msg 123 203 \$1 60;
#X obj 123 223 vline~;
#X obj 144 242 loadbang;
#X obj 124 284 snapshot~;
#X obj 12 100 unpack f f;
#X obj 123 130 / 1023;
#X obj 144 262 metro 20;
#X obj 258 219 expr;
#X obj 12 152 expr 400+$f1*400;
#X connect 0 0 1 0;
#X connect 1 0 2 0;
#X connect 5 0 6 0;
#X connect 5 0 8 0;
#X connect 7 0 5 0;
#X connect 8 0 18 0;
#X connect 9 0 12 0;
#X connect 10 0 9 0;
#X connect 12 0 13 0;
#X connect 13 0 11 0;
#X connect 13 0 11 1;
#X connect 14 0 15 0;
#X connect 15 0 17 0;
#X connect 16 0 20 0;
#X connect 17 0 13 1;
#X connect 18 0 22 0;
#X connect 18 1 19 0;
#X connect 19 0 14 0;
#X connect 20 0 17 0;
#X connect 22 0 10 0;
