#N canvas 85 145 864 515 10;
#X obj 34 153 sampler;
#X obj 84 193 sampler;
#X obj 134 233 sampler;
#X obj 184 273 sampler;
#X obj 234 313 sampler;
#X obj 284 353 sampler;
#X obj 34 91 OSCroute /0 /1 /2 /3 /4 /5;
#X obj 34 48 inlet;
#X msg 277 251 \$1/chimes/g5.wav;
#X msg 327 291 \$1/chimes/a5.wav;
#X msg 377 331 \$1/chimes/c6.wav;
#X obj 34 460 outlet~;
#X obj 541 57 r sampledir;
#X msg 127 131 \$1/chimes/c5.wav;
#X msg 177 171 \$1/chimes/d5.wav;
#X msg 227 211 \$1/chimes/e5.wav;
#X connect 0 0 11 0;
#X connect 1 0 11 0;
#X connect 2 0 11 0;
#X connect 3 0 11 0;
#X connect 4 0 11 0;
#X connect 5 0 11 0;
#X connect 6 0 0 0;
#X connect 6 1 1 0;
#X connect 6 2 2 0;
#X connect 6 3 3 0;
#X connect 6 4 4 0;
#X connect 6 5 5 0;
#X connect 7 0 6 0;
#X connect 8 0 3 1;
#X connect 9 0 4 1;
#X connect 10 0 5 1;
#X connect 12 0 13 0;
#X connect 12 0 14 0;
#X connect 12 0 15 0;
#X connect 12 0 8 0;
#X connect 12 0 9 0;
#X connect 12 0 10 0;
#X connect 13 0 0 1;
#X connect 14 0 1 1;
#X connect 15 0 2 1;
