#N canvas 145 105 767 483 10;
#X obj 44 163 sampler;
#X obj 94 203 sampler;
#X obj 144 243 sampler;
#X obj 194 283 sampler;
#X obj 244 323 sampler;
#X obj 294 363 sampler;
#X obj 44 101 OSCroute /0 /1 /2 /3 /4 /5;
#X obj 44 58 inlet;
#X msg 137 141 \$1/koto/c3.wav;
#X msg 187 181 \$1/koto/d3.wav;
#X msg 237 221 \$1/koto/e3.wav;
#X msg 287 261 \$1/koto/g3.wav;
#X msg 337 301 \$1/koto/a3.wav;
#X msg 387 341 \$1/koto/c4.wav;
#X obj 53 431 outlet~;
#X obj 202 431 outlet~;
#X obj 526 72 r sampledir;
#X connect 0 0 14 0;
#X connect 0 1 15 0;
#X connect 1 0 14 0;
#X connect 1 1 15 0;
#X connect 2 0 14 0;
#X connect 2 1 15 0;
#X connect 3 0 14 0;
#X connect 3 1 15 0;
#X connect 4 0 14 0;
#X connect 4 1 15 0;
#X connect 5 0 14 0;
#X connect 5 1 15 0;
#X connect 6 0 0 0;
#X connect 6 1 1 0;
#X connect 6 2 2 0;
#X connect 6 3 3 0;
#X connect 6 4 4 0;
#X connect 6 5 5 0;
#X connect 7 0 6 0;
#X connect 8 0 0 1;
#X connect 9 0 1 1;
#X connect 10 0 2 1;
#X connect 11 0 3 1;
#X connect 12 0 4 1;
#X connect 13 0 5 1;
#X connect 16 0 8 0;
#X connect 16 0 10 0;
#X connect 16 0 11 0;
#X connect 16 0 12 0;
#X connect 16 0 13 0;
#X connect 16 0 9 0;
